<svg width="68" height="48" viewBox="0 0 68 48" fill="none" xmlns="http://www.w3.org/2000/svg">
<rect width="68" height="48" rx="24" fill="#EEEEEE"/>
<rect x="10" y="10" width="48" height="28" rx="14" fill="#642D91"/>
<path d="M38.6666 20.6666C38.6666 20.313 38.5261 19.9738 38.2761 19.7238C38.026 19.4737 37.6869 19.3333 37.3333 19.3333H35.3333V20.6666H37.3333V22.4333L34.9999 25.3333H32.6666V21.9999H29.9999C28.5266 21.9999 27.3333 23.1933 27.3333 24.6666V26.6666H28.6666C28.6666 27.7733 29.5599 28.6666 30.6666 28.6666C31.7733 28.6666 32.6666 27.7733 32.6666 26.6666H35.6666L38.6666 22.8999V20.6666ZM30.6666 27.3333C30.2999 27.3333 29.9999 27.0333 29.9999 26.6666H31.3333C31.3333 27.0333 31.0333 27.3333 30.6666 27.3333ZM31.3333 25.3333H28.6666V24.6666C28.6666 23.9333 29.2666 23.3333 29.9999 23.3333H31.3333V25.3333ZM38.6666 24.6666C37.5599 24.6666 36.6666 25.5599 36.6666 26.6666C36.6666 27.7733 37.5599 28.6666 38.6666 28.6666C39.7733 28.6666 40.6666 27.7733 40.6666 26.6666C40.6666 25.5599 39.7733 24.6666 38.6666 24.6666ZM38.6666 27.3333C38.2999 27.3333 37.9999 27.0333 37.9999 26.6666C37.9999 26.2999 38.2999 25.9999 38.6666 25.9999C39.0333 25.9999 39.3333 26.2999 39.3333 26.6666C39.3333 27.0333 39.0333 27.3333 38.6666 27.3333ZM32.6666 21.3333H29.3333V19.9999H32.6666V21.3333Z" fill="white"/>
</svg>
