<svg width="18" height="22" viewBox="0 0 18 22" fill="none" xmlns="http://www.w3.org/2000/svg">
<mask id="mask0_7907_22436" style="mask-type:luminance" maskUnits="userSpaceOnUse" x="0" y="0" width="18" height="22">
<path fill-rule="evenodd" clip-rule="evenodd" d="M0 0.5H17.0388V21.3467H0V0.5Z" fill="white"/>
</mask>
<g mask="url(#mask0_7907_22436)">
<path fill-rule="evenodd" clip-rule="evenodd" d="M5.3418 2C2.7928 2 1.4998 2.982 1.4998 4.921V19.645C1.4998 19.739 1.5538 19.79 1.5988 19.816C1.6438 19.844 1.7148 19.864 1.7968 19.818L8.1788 16.238C8.4068 16.111 8.6858 16.11 8.9148 16.239L15.2418 19.813C15.3248 19.861 15.3958 19.839 15.4408 19.812C15.4858 19.785 15.5388 19.734 15.5388 19.64V5.104C15.5388 4.337 15.5388 2 11.7008 2H5.3418ZM1.6988 21.347C1.4038 21.347 1.1088 21.268 0.840802 21.11C0.313802 20.803 -0.000198364 20.254 -0.000198364 19.645V4.921C-0.000198364 2.111 1.9468 0.5 5.3418 0.5H11.7008C15.0928 0.5 17.0388 2.179 17.0388 5.104V19.64C17.0388 20.25 16.7248 20.799 16.1968 21.106C15.6708 21.414 15.0368 21.42 14.5048 21.12L8.5448 17.753L2.5298 21.127C2.2698 21.273 1.9848 21.347 1.6988 21.347Z" fill="#642D91"/>
</g>
<path fill-rule="evenodd" clip-rule="evenodd" d="M12.1396 8.72852H4.82159C4.40759 8.72852 4.07159 8.39252 4.07159 7.97852C4.07159 7.56452 4.40759 7.22852 4.82159 7.22852H12.1396C12.5536 7.22852 12.8896 7.56452 12.8896 7.97852C12.8896 8.39252 12.5536 8.72852 12.1396 8.72852Z" fill="#642D91"/>
</svg>
