<svg width="15" height="20" viewBox="0 0 15 20" fill="none" xmlns="http://www.w3.org/2000/svg">
<mask id="mask0_7731_6666" style="mask-type:luminance" maskUnits="userSpaceOnUse" x="0" y="0" width="15" height="20">
<path fill-rule="evenodd" clip-rule="evenodd" d="M0.5 0.777832H14.699V19.3082H0.5V0.777832Z" fill="white"/>
</mask>
<g mask="url(#mask0_7731_6666)">
<path fill-rule="evenodd" clip-rule="evenodd" d="M4.9515 2.11117C2.82733 2.11117 1.74983 2.98405 1.74983 4.70761V17.7956C1.74983 17.8792 1.79483 17.9245 1.83233 17.9476C1.86983 17.9725 1.929 17.9903 1.99733 17.9494L7.31567 14.7672C7.50567 14.6543 7.73817 14.6534 7.929 14.7681L13.2015 17.9449C13.2707 17.9876 13.3298 17.9681 13.3673 17.9441C13.4048 17.9201 13.449 17.8747 13.449 17.7912V4.87028C13.449 4.1885 13.449 2.11117 10.2507 2.11117H4.9515ZM1.91567 19.3085C1.66983 19.3085 1.424 19.2383 1.20067 19.0978C0.761499 18.8249 0.499832 18.3369 0.499832 17.7956V4.70761C0.499832 2.20983 2.12233 0.777832 4.9515 0.777832H10.2507C13.0773 0.777832 14.699 2.27028 14.699 4.87028V17.7912C14.699 18.3334 14.4373 18.8214 13.9973 19.0943C13.559 19.3681 13.0307 19.3734 12.5873 19.1067L7.62067 16.1138L2.60817 19.1129C2.3915 19.2427 2.154 19.3085 1.91567 19.3085Z" fill="#9E9E9E"/>
</g>
<path fill-rule="evenodd" clip-rule="evenodd" d="M10.6163 8.09212H4.518C4.173 8.09212 3.893 7.79346 3.893 7.42546C3.893 7.05746 4.173 6.75879 4.518 6.75879H10.6163C10.9613 6.75879 11.2413 7.05746 11.2413 7.42546C11.2413 7.79346 10.9613 8.09212 10.6163 8.09212Z" fill="#9E9E9E"/>
</svg>
