<svg width="21" height="20" viewBox="0 0 21 20" fill="none" xmlns="http://www.w3.org/2000/svg">
<path fill-rule="evenodd" clip-rule="evenodd" d="M4.12772 5.34749L4.73072 12.5195C4.77472 13.0715 5.22572 13.4855 5.77672 13.4855H5.78072H16.6917H16.6937C17.2147 13.4855 17.6597 13.0975 17.7337 12.5825L18.6837 6.02349C18.7057 5.86749 18.6667 5.71149 18.5717 5.58549C18.4777 5.45849 18.3397 5.37649 18.1837 5.35449C17.9747 5.36249 9.30172 5.35049 4.12772 5.34749ZM5.77472 14.9855C4.45772 14.9855 3.34272 13.9575 3.23572 12.6425L2.31972 1.74849L0.812719 1.48849C0.403719 1.41649 0.130719 1.02949 0.200719 0.620487C0.272719 0.211487 0.667719 -0.054513 1.06772 0.00948704L3.14772 0.369487C3.48272 0.428487 3.73772 0.706487 3.76672 1.04649L4.00172 3.84749C18.2777 3.85349 18.3237 3.86049 18.3927 3.86849C18.9497 3.94949 19.4397 4.24049 19.7737 4.68849C20.1077 5.13549 20.2477 5.68649 20.1677 6.23849L19.2187 12.7965C19.0397 14.0445 17.9557 14.9855 16.6957 14.9855H16.6907H5.78272H5.77472Z" fill="#9E9E9E"/>
<path fill-rule="evenodd" clip-rule="evenodd" d="M15.0876 9.0437H12.3156C11.9006 9.0437 11.5656 8.7077 11.5656 8.2937C11.5656 7.8797 11.9006 7.5437 12.3156 7.5437H15.0876C15.5016 7.5437 15.8376 7.8797 15.8376 8.2937C15.8376 8.7077 15.5016 9.0437 15.0876 9.0437Z" fill="#9E9E9E"/>
<path fill-rule="evenodd" clip-rule="evenodd" d="M5.34451 17.7019C5.64551 17.7019 5.88851 17.9449 5.88851 18.2459C5.88851 18.5469 5.64551 18.7909 5.34451 18.7909C5.04251 18.7909 4.79951 18.5469 4.79951 18.2459C4.79951 17.9449 5.04251 17.7019 5.34451 17.7019Z" fill="#9E9E9E"/>
<mask id="mask0_7665_2631" style="mask-type:luminance" maskUnits="userSpaceOnUse" x="4" y="17" width="2" height="2">
<path fill-rule="evenodd" clip-rule="evenodd" d="M4.79902 18.2457C4.79902 18.5477 5.04202 18.7917 5.34502 18.7917C5.64602 18.7917 5.88902 18.5477 5.88902 18.2457C5.88902 17.9447 5.64602 17.7017 5.34502 17.7017C5.04202 17.7017 4.79902 17.9447 4.79902 18.2457Z" fill="white"/>
</mask>
<g mask="url(#mask0_7665_2631)">
<path fill-rule="evenodd" clip-rule="evenodd" d="M-0.199982 23.7907H10.889V12.7017H-0.199982V23.7907Z" fill="#9E9E9E"/>
</g>
<path fill-rule="evenodd" clip-rule="evenodd" d="M5.34351 18.0409C5.23051 18.0409 5.13851 18.1329 5.13851 18.2459C5.13851 18.4729 5.54951 18.4729 5.54951 18.2459C5.54951 18.1329 5.45651 18.0409 5.34351 18.0409ZM5.34351 19.5409C4.62951 19.5409 4.04951 18.9599 4.04951 18.2459C4.04951 17.5319 4.62951 16.9519 5.34351 16.9519C6.05751 16.9519 6.63851 17.5319 6.63851 18.2459C6.63851 18.9599 6.05751 19.5409 5.34351 19.5409Z" fill="#9E9E9E"/>
<path fill-rule="evenodd" clip-rule="evenodd" d="M16.6248 17.7019C16.9258 17.7019 17.1698 17.9449 17.1698 18.2459C17.1698 18.5469 16.9258 18.7909 16.6248 18.7909C16.3228 18.7909 16.0798 18.5469 16.0798 18.2459C16.0798 17.9449 16.3228 17.7019 16.6248 17.7019Z" fill="#9E9E9E"/>
<mask id="mask1_7665_2631" style="mask-type:luminance" maskUnits="userSpaceOnUse" x="16" y="17" width="2" height="2">
<path fill-rule="evenodd" clip-rule="evenodd" d="M16.08 18.2457C16.08 18.5477 16.323 18.7917 16.625 18.7917C16.925 18.7917 17.17 18.5477 17.17 18.2457C17.17 17.9447 16.925 17.7017 16.625 17.7017C16.323 17.7017 16.08 17.9447 16.08 18.2457Z" fill="white"/>
</mask>
<g mask="url(#mask1_7665_2631)">
<path fill-rule="evenodd" clip-rule="evenodd" d="M11.08 23.7907H22.17V12.7017H11.08V23.7907Z" fill="#9E9E9E"/>
</g>
<path fill-rule="evenodd" clip-rule="evenodd" d="M16.6238 18.0409C16.5118 18.0409 16.4198 18.1329 16.4198 18.2459C16.4208 18.4749 16.8308 18.4729 16.8298 18.2459C16.8298 18.1329 16.7368 18.0409 16.6238 18.0409ZM16.6238 19.5409C15.9098 19.5409 15.3298 18.9599 15.3298 18.2459C15.3298 17.5319 15.9098 16.9519 16.6238 16.9519C17.3388 16.9519 17.9198 17.5319 17.9198 18.2459C17.9198 18.9599 17.3388 19.5409 16.6238 19.5409Z" fill="#9E9E9E"/>
</svg>
