<svg width="17" height="18" viewBox="0 0 17 18" fill="none" xmlns="http://www.w3.org/2000/svg">
<path fill-rule="evenodd" clip-rule="evenodd" d="M10.2678 8.36077H12.5744C12.9241 8.36077 13.1989 8.07163 13.1989 7.72295C13.1989 7.36577 12.9241 7.08513 12.5744 7.08513H10.2678C9.9181 7.08513 9.64331 7.36577 9.64331 7.72295C9.64331 8.07163 9.9181 8.36077 10.2678 8.36077ZM15.3139 3.93941C15.8218 3.93941 16.1549 4.118 16.488 4.5092C16.8211 4.90039 16.8793 5.46167 16.8044 5.97108L16.0134 11.5499C15.8635 12.6222 14.9642 13.4123 13.9067 13.4123H4.82207C3.7146 13.4123 2.79865 12.5457 2.70705 11.4231L1.94098 2.15267L0.68363 1.93156C0.350557 1.87203 0.117405 1.54037 0.175693 1.2002C0.233981 0.852375 0.558728 0.62191 0.900128 0.673786L2.88608 0.979088C3.16919 1.03096 3.37736 1.26823 3.40234 1.55738L3.56055 3.46233C3.58554 3.73531 3.80203 3.93941 4.06849 3.93941H15.3139ZM4.68868 14.7564C3.98922 14.7564 3.423 15.3347 3.423 16.049C3.423 16.7549 3.98922 17.3332 4.68868 17.3332C5.3798 17.3332 5.94603 16.7549 5.94603 16.049C5.94603 15.3347 5.3798 14.7564 4.68868 14.7564ZM14.0564 14.7564C13.3569 14.7564 12.7907 15.3347 12.7907 16.049C12.7907 16.7549 13.3569 17.3332 14.0564 17.3332C14.7475 17.3332 15.3137 16.7549 15.3137 16.049C15.3137 15.3347 14.7475 14.7564 14.0564 14.7564Z" fill="white"/>
</svg>
