<svg width="48" height="28" viewBox="0 0 48 28" fill="none" xmlns="http://www.w3.org/2000/svg">
<rect width="48" height="28" rx="14" fill="#642D91"/>
<path fill-rule="evenodd" clip-rule="evenodd" d="M27.2928 8C28.1868 8 29.0468 8.35333 29.6795 8.98733C30.3128 9.62 30.6668 10.4733 30.6668 11.3667V16.6333C30.6668 18.4933 29.1535 20 27.2928 20H20.7068C18.8462 20 17.3335 18.4933 17.3335 16.6333V11.3667C17.3335 9.50667 18.8395 8 20.7068 8H27.2928ZM28.3535 12.36L28.4068 12.3067C28.5662 12.1133 28.5662 11.8333 28.3995 11.64C28.3068 11.5407 28.1795 11.48 28.0468 11.4667C27.9068 11.4593 27.7735 11.5067 27.6728 11.6L24.6668 14C24.2802 14.3207 23.7262 14.3207 23.3335 14L20.3335 11.6C20.1262 11.4467 19.8395 11.4667 19.6668 11.6467C19.4868 11.8267 19.4668 12.1133 19.6195 12.3133L19.7068 12.4L22.7402 14.7667C23.1135 15.06 23.5662 15.22 24.0402 15.22C24.5128 15.22 24.9735 15.06 25.3462 14.7667L28.3535 12.36Z" fill="white"/>
</svg>
