<svg width="48" height="28" viewBox="0 0 48 28" fill="none" xmlns="http://www.w3.org/2000/svg">
<rect width="48" height="28" rx="14" fill="#642D91"/>
<path d="M28.6666 10.6668C28.6666 10.3132 28.5261 9.97407 28.2761 9.72402C28.026 9.47397 27.6869 9.3335 27.3333 9.3335H25.3333V10.6668H27.3333V12.4335L24.9999 15.3335H22.6666V12.0002H19.9999C18.5266 12.0002 17.3333 13.1935 17.3333 14.6668V16.6668H18.6666C18.6666 17.7735 19.5599 18.6668 20.6666 18.6668C21.7733 18.6668 22.6666 17.7735 22.6666 16.6668H25.6666L28.6666 12.9002V10.6668ZM20.6666 17.3335C20.2999 17.3335 19.9999 17.0335 19.9999 16.6668H21.3333C21.3333 17.0335 21.0333 17.3335 20.6666 17.3335ZM21.3333 15.3335H18.6666V14.6668C18.6666 13.9335 19.2666 13.3335 19.9999 13.3335H21.3333V15.3335ZM28.6666 14.6668C27.5599 14.6668 26.6666 15.5602 26.6666 16.6668C26.6666 17.7735 27.5599 18.6668 28.6666 18.6668C29.7733 18.6668 30.6666 17.7735 30.6666 16.6668C30.6666 15.5602 29.7733 14.6668 28.6666 14.6668ZM28.6666 17.3335C28.2999 17.3335 27.9999 17.0335 27.9999 16.6668C27.9999 16.3002 28.2999 16.0002 28.6666 16.0002C29.0333 16.0002 29.3333 16.3002 29.3333 16.6668C29.3333 17.0335 29.0333 17.3335 28.6666 17.3335ZM22.6666 11.3335H19.3333V10.0002H22.6666V11.3335Z" fill="white"/>
</svg>
