<svg width="20" height="20" viewBox="0 0 20 20" fill="none" xmlns="http://www.w3.org/2000/svg">
<path d="M10.0003 1.6665C12.2105 1.6665 14.3301 2.54448 15.8929 4.10728C17.4557 5.67008 18.3337 7.7897 18.3337 9.99984C18.3337 12.21 17.4557 14.3296 15.8929 15.8924C14.3301 17.4552 12.2105 18.3332 10.0003 18.3332C7.79019 18.3332 5.67057 17.4552 4.10777 15.8924C2.54497 14.3296 1.66699 12.21 1.66699 9.99984C1.66699 7.7897 2.54497 5.67008 4.10777 4.10728C5.67057 2.54448 7.79019 1.6665 10.0003 1.6665ZM10.0003 3.33317C8.23222 3.33317 6.53652 4.03555 5.28628 5.28579C4.03604 6.53604 3.33366 8.23173 3.33366 9.99984C3.33366 11.7679 4.03604 13.4636 5.28628 14.7139C6.53652 15.9641 8.23222 16.6665 10.0003 16.6665C11.7684 16.6665 13.4641 15.9641 14.7144 14.7139C15.9646 13.4636 16.667 11.7679 16.667 9.99984C16.667 8.23173 15.9646 6.53604 14.7144 5.28579C13.4641 4.03555 11.7684 3.33317 10.0003 3.33317ZM9.16699 5.83317C9.36204 5.83311 9.55092 5.90146 9.70076 6.02632C9.85059 6.15118 9.95189 6.32465 9.98699 6.5165L10.0003 6.6665V9.99984H12.5003C12.7086 9.99945 12.9094 10.0771 13.0633 10.2174C13.2172 10.3577 13.313 10.5505 13.3318 10.7579C13.3506 10.9653 13.2911 11.1722 13.165 11.3379C13.0388 11.5036 12.8552 11.6161 12.6503 11.6532L12.5003 11.6665H9.16699C8.97195 11.6666 8.78306 11.5982 8.63323 11.4734C8.48339 11.3485 8.3821 11.175 8.34699 10.9832L8.33366 10.8332V6.6665C8.33366 6.44549 8.42146 6.23353 8.57774 6.07725C8.73402 5.92097 8.94598 5.83317 9.16699 5.83317Z" fill="#212121"/>
</svg>
