<svg width="28" height="28" viewBox="0 0 28 28" fill="none" xmlns="http://www.w3.org/2000/svg">
<path fill-rule="evenodd" clip-rule="evenodd" d="M14 4.08325C8.53181 4.08325 4.08331 8.53175 4.08331 13.9999C4.08331 19.4681 8.53181 23.9166 14 23.9166C19.4681 23.9166 23.9166 19.4681 23.9166 13.9999C23.9166 8.53175 19.4681 4.08325 14 4.08325ZM14 25.6666C7.56698 25.6666 2.33331 20.4329 2.33331 13.9999C2.33331 7.56692 7.56698 2.33325 14 2.33325C20.433 2.33325 25.6666 7.56692 25.6666 13.9999C25.6666 20.4329 20.433 25.6666 14 25.6666Z" fill="#212121"/>
<path fill-rule="evenodd" clip-rule="evenodd" d="M18.6062 15.1825C17.961 15.1825 17.4337 14.661 17.4337 14.0158C17.4337 13.3706 17.9505 12.8491 18.5945 12.8491H18.6062C19.2514 12.8491 19.7729 13.3706 19.7729 14.0158C19.7729 14.661 19.2514 15.1825 18.6062 15.1825Z" fill="#212121"/>
<path fill-rule="evenodd" clip-rule="evenodd" d="M13.9282 15.1825C13.2831 15.1825 12.7569 14.661 12.7569 14.0158C12.7569 13.3706 13.2726 12.8491 13.9177 12.8491H13.9282C14.5734 12.8491 15.0949 13.3706 15.0949 14.0158C15.0949 14.661 14.5734 15.1825 13.9282 15.1825Z" fill="#212121"/>
<path fill-rule="evenodd" clip-rule="evenodd" d="M9.2513 15.1825C8.60613 15.1825 8.0788 14.661 8.0788 14.0158C8.0788 13.3706 8.59563 12.8491 9.2408 12.8491H9.2513C9.89646 12.8491 10.418 13.3706 10.418 14.0158C10.418 14.661 9.89646 15.1825 9.2513 15.1825Z" fill="#212121"/>
</svg>
