<svg width="21" height="20" viewBox="0 0 21 20" fill="none" xmlns="http://www.w3.org/2000/svg">
<path fill-rule="evenodd" clip-rule="evenodd" d="M12.9213 9.23312H15.6892C16.1088 9.23312 16.4386 8.88615 16.4386 8.46774C16.4386 8.03912 16.1088 7.70236 15.6892 7.70236H12.9213C12.5016 7.70236 12.1719 8.03912 12.1719 8.46774C12.1719 8.88615 12.5016 9.23312 12.9213 9.23312ZM18.9766 3.92749C19.5861 3.92749 19.9858 4.1418 20.3855 4.61123C20.7852 5.08067 20.8551 5.7542 20.7652 6.36549L19.8159 13.06C19.6361 14.3469 18.5569 15.2949 17.2879 15.2949H6.38641C5.05744 15.2949 3.9583 14.255 3.84838 12.908L2.9291 1.7834L1.42028 1.51807C1.02059 1.44664 0.740807 1.04864 0.810752 0.640433C0.880698 0.223045 1.27039 -0.0535127 1.68007 0.0087383L4.06322 0.375101C4.40295 0.437352 4.65276 0.722074 4.68273 1.06905L4.87259 3.35499C4.90256 3.68257 5.16236 3.92749 5.48211 3.92749H18.9766ZM6.22633 16.9079C5.38699 16.9079 4.70752 17.6018 4.70752 18.459C4.70752 19.3061 5.38699 20 6.22633 20C7.05569 20 7.73516 19.3061 7.73516 18.459C7.73516 17.6018 7.05569 16.9079 6.22633 16.9079ZM17.4676 16.9079C16.6282 16.9079 15.9488 17.6018 15.9488 18.459C15.9488 19.3061 16.6282 20 17.4676 20C18.2969 20 18.9764 19.3061 18.9764 18.459C18.9764 17.6018 18.2969 16.9079 17.4676 16.9079Z" fill="#642D91"/>
</svg>
