<svg width="20" height="20" viewBox="0 0 20 20" fill="none" xmlns="http://www.w3.org/2000/svg">
<path fill-rule="evenodd" clip-rule="evenodd" d="M5.72205e-06 10.015C5.72205e-06 4.74712 4.21001 0 10.02 0C15.7 0 20 4.65699 20 9.98498C20 16.1642 14.96 20 10 20C8.36001 20 6.54001 19.5593 5.08001 18.698C4.57001 18.3876 4.14001 18.1572 3.59001 18.3375L1.57001 18.9384C1.06001 19.0986 0.600006 18.698 0.750006 18.1572L1.42001 15.9139C1.53001 15.6034 1.51001 15.2729 1.35001 15.0125C0.490006 13.4301 5.72205e-06 11.6975 5.72205e-06 10.015ZM8.70001 10.015C8.70001 10.7261 9.27001 11.2969 9.98001 11.307C10.69 11.307 11.26 10.7261 11.26 10.025C11.26 9.31397 10.69 8.74311 9.98001 8.74311C9.28001 8.7331 8.70001 9.31397 8.70001 10.015ZM13.31 10.025C13.31 10.7261 13.88 11.307 14.59 11.307C15.3 11.307 15.87 10.7261 15.87 10.025C15.87 9.31397 15.3 8.74311 14.59 8.74311C13.88 8.74311 13.31 9.31397 13.31 10.025ZM5.37001 11.307C4.67001 11.307 4.09001 10.7261 4.09001 10.025C4.09001 9.31397 4.66001 8.74311 5.37001 8.74311C6.08001 8.74311 6.65001 9.31397 6.65001 10.025C6.65001 10.7261 6.08001 11.2969 5.37001 11.307Z" fill="#642D91"/>
</svg>
