<svg width="22" height="22" viewBox="0 0 22 22" fill="none" xmlns="http://www.w3.org/2000/svg">
<mask id="mask0_7665_2619" style="mask-type:luminance" maskUnits="userSpaceOnUse" x="0" y="0" width="22" height="22">
<path fill-rule="evenodd" clip-rule="evenodd" d="M2.09808e-05 0.000244141H21.493V21.494H2.09808e-05V0.000244141Z" fill="white"/>
</mask>
<g mask="url(#mask0_7665_2619)">
<path fill-rule="evenodd" clip-rule="evenodd" d="M5.10842 18.6752C5.68842 18.6752 6.23542 18.8952 6.81442 19.1282C10.3614 20.7682 14.5564 20.0222 17.2894 17.2902C20.8954 13.6822 20.8954 7.81324 17.2894 4.20724C15.5434 2.46124 13.2214 1.50024 10.7494 1.50024C8.27642 1.50024 5.95342 2.46224 4.20842 4.20824C1.47442 6.94024 0.730421 11.1352 2.35542 14.6482C2.58942 15.2272 2.81542 15.7912 2.81542 16.3772C2.81542 16.9622 2.61442 17.5512 2.43742 18.0712C2.29142 18.4992 2.07042 19.1452 2.21242 19.2872C2.35142 19.4312 3.00142 19.2042 3.43042 19.0572C3.94542 18.8812 4.52942 18.6792 5.10842 18.6752ZM10.7244 21.4942C9.19642 21.4942 7.65842 21.1712 6.21942 20.5052C5.79542 20.3352 5.39842 20.1752 5.11342 20.1752C4.78542 20.1772 4.34442 20.3292 3.91842 20.4762C3.04442 20.7762 1.95642 21.1502 1.15142 20.3482C0.349421 19.5452 0.719421 18.4602 1.01742 17.5872C1.16442 17.1572 1.31542 16.7132 1.31542 16.3772C1.31542 16.1012 1.18242 15.7492 0.978421 15.2422C-0.894579 11.1972 -0.028579 6.32224 3.14842 3.14724C5.17642 1.11824 7.87542 0.000244141 10.7484 0.000244141C13.6214 0.000244141 16.3214 1.11724 18.3494 3.14624C22.5414 7.33824 22.5414 14.1582 18.3494 18.3502C16.2944 20.4062 13.5274 21.4942 10.7244 21.4942Z" fill="#9E9E9E"/>
</g>
<path fill-rule="evenodd" clip-rule="evenodd" d="M14.6963 12.1628C14.1443 12.1628 13.6923 11.7158 13.6923 11.1628C13.6923 10.6098 14.1353 10.1628 14.6873 10.1628H14.6963C15.2483 10.1628 15.6963 10.6098 15.6963 11.1628C15.6963 11.7158 15.2483 12.1628 14.6963 12.1628Z" fill="#9E9E9E"/>
<path fill-rule="evenodd" clip-rule="evenodd" d="M10.6875 12.1628C10.1355 12.1628 9.68352 11.7158 9.68352 11.1628C9.68352 10.6098 10.1255 10.1628 10.6785 10.1628H10.6875C11.2395 10.1628 11.6875 10.6098 11.6875 11.1628C11.6875 11.7158 11.2395 12.1628 10.6875 12.1628Z" fill="#9E9E9E"/>
<path fill-rule="evenodd" clip-rule="evenodd" d="M6.67832 12.1628C6.12632 12.1628 5.67432 11.7158 5.67432 11.1628C5.67432 10.6098 6.11732 10.1628 6.66932 10.1628H6.67832C7.23032 10.1628 7.67832 10.6098 7.67832 11.1628C7.67832 11.7158 7.23032 12.1628 6.67832 12.1628Z" fill="#9E9E9E"/>
</svg>
