<svg width="24" height="24" viewBox="0 0 24 24" fill="none" xmlns="http://www.w3.org/2000/svg">
<path fill-rule="evenodd" clip-rule="evenodd" d="M12.2466 22.0001C10.8916 22.0001 9.5706 21.9852 8.2636 21.9581C6.5916 21.9251 5.4346 20.8411 5.2456 19.1291C4.9306 16.2891 4.3916 9.59515 4.3866 9.52815C4.3526 9.11515 4.6606 8.75315 5.0736 8.72015C5.4806 8.70915 5.8486 8.99515 5.8816 9.40715C5.8866 9.47515 6.4246 16.1461 6.7366 18.9641C6.8436 19.9371 7.3686 20.4391 8.2946 20.4581C10.7946 20.5112 13.3456 20.5141 16.0956 20.4641C17.0796 20.4451 17.6116 19.9531 17.7216 18.9571C18.0316 16.1631 18.5716 9.47515 18.5776 9.40715C18.6106 8.99515 18.9756 8.70715 19.3846 8.72015C19.7976 8.75415 20.1056 9.11515 20.0726 9.52815C20.0666 9.59615 19.5246 16.3071 19.2126 19.1221C19.0186 20.8691 17.8646 21.9321 16.1226 21.9641C14.7896 21.9871 13.5036 22.0001 12.2466 22.0001Z" fill="#FF0000"/>
<path fill-rule="evenodd" clip-rule="evenodd" d="M20.708 6.98926H3.75C3.336 6.98926 3 6.65326 3 6.23926C3 5.82526 3.336 5.48926 3.75 5.48926H20.708C21.122 5.48926 21.458 5.82526 21.458 6.23926C21.458 6.65326 21.122 6.98926 20.708 6.98926Z" fill="#FF0000"/>
<path fill-rule="evenodd" clip-rule="evenodd" d="M17.4404 6.989C16.3024 6.989 15.3144 6.178 15.0904 5.062L14.8474 3.846C14.7964 3.661 14.5854 3.5 14.3454 3.5H10.1124C9.8724 3.5 9.6614 3.661 9.60039 3.892L9.36739 5.062C9.14439 6.178 8.1554 6.989 7.0174 6.989C6.6034 6.989 6.2674 6.653 6.2674 6.239C6.2674 5.825 6.6034 5.489 7.0174 5.489C7.4434 5.489 7.8134 5.185 7.8974 4.767L8.1404 3.551C8.3874 2.619 9.1944 2 10.1124 2H14.3454C15.2634 2 16.0704 2.619 16.3074 3.506L16.5614 4.767C16.6444 5.185 17.0144 5.489 17.4404 5.489C17.8544 5.489 18.1904 5.825 18.1904 6.239C18.1904 6.653 17.8544 6.989 17.4404 6.989Z" fill="#FF0000"/>
</svg>
