<svg width="16" height="16" viewBox="0 0 16 16" fill="none" xmlns="http://www.w3.org/2000/svg">
<path d="M12.6668 4.66683C12.6668 4.31321 12.5264 3.97407 12.2763 3.72402C12.0263 3.47397 11.6871 3.3335 11.3335 3.3335H9.3335V4.66683H11.3335V6.4335L9.00016 9.3335H6.66683V6.00016H4.00016C2.52683 6.00016 1.3335 7.1935 1.3335 8.66683V10.6668H2.66683C2.66683 11.7735 3.56016 12.6668 4.66683 12.6668C5.7735 12.6668 6.66683 11.7735 6.66683 10.6668H9.66683L12.6668 6.90016V4.66683ZM4.66683 11.3335C4.30016 11.3335 4.00016 11.0335 4.00016 10.6668H5.3335C5.3335 11.0335 5.0335 11.3335 4.66683 11.3335ZM5.3335 9.3335H2.66683V8.66683C2.66683 7.9335 3.26683 7.3335 4.00016 7.3335H5.3335V9.3335ZM12.6668 8.66683C11.5602 8.66683 10.6668 9.56016 10.6668 10.6668C10.6668 11.7735 11.5602 12.6668 12.6668 12.6668C13.7735 12.6668 14.6668 11.7735 14.6668 10.6668C14.6668 9.56016 13.7735 8.66683 12.6668 8.66683ZM12.6668 11.3335C12.3002 11.3335 12.0002 11.0335 12.0002 10.6668C12.0002 10.3002 12.3002 10.0002 12.6668 10.0002C13.0335 10.0002 13.3335 10.3002 13.3335 10.6668C13.3335 11.0335 13.0335 11.3335 12.6668 11.3335ZM6.66683 5.3335H3.3335V4.00016H6.66683V5.3335Z" fill="#212121"/>
</svg>
