<svg width="17" height="16" viewBox="0 0 17 16" fill="none" xmlns="http://www.w3.org/2000/svg">
<path d="M13.1666 4.66634C13.1666 4.31272 13.0261 3.97358 12.7761 3.72353C12.526 3.47348 12.1869 3.33301 11.8333 3.33301H9.83325V4.66634H11.8333V6.43301L9.49992 9.33301H7.16659V5.99967H4.49992C3.02659 5.99967 1.83325 7.19301 1.83325 8.66634V10.6663H3.16659C3.16659 11.773 4.05992 12.6663 5.16659 12.6663C6.27325 12.6663 7.16659 11.773 7.16659 10.6663H10.1666L13.1666 6.89967V4.66634ZM5.16659 11.333C4.79992 11.333 4.49992 11.033 4.49992 10.6663H5.83325C5.83325 11.033 5.53325 11.333 5.16659 11.333ZM5.83325 9.33301H3.16659V8.66634C3.16659 7.93301 3.76659 7.33301 4.49992 7.33301H5.83325V9.33301ZM13.1666 8.66634C12.0599 8.66634 11.1666 9.55967 11.1666 10.6663C11.1666 11.773 12.0599 12.6663 13.1666 12.6663C14.2733 12.6663 15.1666 11.773 15.1666 10.6663C15.1666 9.55967 14.2733 8.66634 13.1666 8.66634ZM13.1666 11.333C12.7999 11.333 12.4999 11.033 12.4999 10.6663C12.4999 10.2997 12.7999 9.99967 13.1666 9.99967C13.5333 9.99967 13.8333 10.2997 13.8333 10.6663C13.8333 11.033 13.5333 11.333 13.1666 11.333ZM7.16659 5.33301H3.83325V3.99967H7.16659V5.33301Z" fill="white"/>
</svg>
