<svg width="170" height="170" viewBox="0 0 170 170" fill="none" xmlns="http://www.w3.org/2000/svg">
<path d="M139.2 140.5C141.432 140.893 143.402 140.762 145.371 141.287C146.553 141.681 147.603 142.206 147.866 143.52C148.129 144.964 147.341 146.014 146.159 146.802C144.977 147.59 143.796 147.721 142.351 147.721C112.808 148.246 83.1336 148.509 53.5903 147.721C44.5304 147.459 35.4705 147.327 26.4106 146.54C24.441 146.408 22.3402 145.883 20.5019 145.226C16.4315 143.782 14.462 140.5 14.0681 136.429C13.4115 130.258 13.0176 124.087 12.4924 117.915C11.8359 110.169 11.0481 102.422 10.3916 94.5434C9.86635 88.2409 9.34114 81.807 8.68462 75.5044C8.42201 72.7471 8.29071 69.8584 7.8968 67.101C7.24028 60.7985 8.94723 55.1525 12.6237 50.1629C13.5428 48.8499 14.8559 47.6682 16.4315 47.2743C17.6132 46.8803 17.7445 46.2238 17.7445 45.1734C17.7445 43.3352 17.6132 41.4969 18.1384 39.6587C19.4515 34.9318 23.9158 31.5179 28.774 31.6492C50.9643 31.9118 73.0232 32.3057 95.2135 32.5683C106.112 32.6996 117.01 32.8309 127.908 32.9622C134.998 33.0935 139.725 37.8204 139.857 44.9108C139.857 49.769 139.857 54.6272 139.857 59.3542C139.857 60.4046 140.25 60.6672 141.17 60.7985C146.684 61.8489 149.836 66.5758 149.048 72.0906C148.523 75.7671 148.26 79.4436 147.866 83.12C147.341 88.1096 146.816 92.9678 146.422 97.9573C146.028 101.634 145.765 105.31 145.371 108.855C144.846 113.714 144.321 118.703 143.927 123.561C143.664 125.925 143.402 128.288 143.27 130.783C143.008 134.591 142.351 137.873 139.2 140.5ZM80.1136 138.793C97.8395 138.793 115.565 138.793 133.291 138.793C136.311 138.793 138.806 136.823 139.2 133.803C139.725 129.339 140.119 125.006 140.513 120.541C141.038 115.683 141.432 110.956 141.957 106.098C142.483 100.321 143.139 94.4121 143.664 88.6348C144.19 82.8574 144.715 76.9488 145.371 71.1714C145.634 68.2828 144.452 66.1819 141.826 65.1315C140.644 64.6063 139.463 64.6063 138.281 64.6063C126.201 64.6063 114.121 64.6063 102.041 64.6063C97.7082 64.6063 94.0317 63.1619 91.2744 59.7481C89.9613 58.1724 88.3857 56.5968 87.0726 55.0211C84.3153 51.6073 80.7701 50.1629 76.3058 50.1629C62.2563 50.2942 48.2069 50.1629 34.1574 50.1629C29.1679 50.1629 24.1784 50.1629 19.1889 50.2942C16.6941 50.2942 14.5933 52.1325 14.0681 54.6272C13.6741 56.4655 14.068 58.435 14.1994 60.2733C14.5933 64.475 14.9872 68.5454 15.2498 72.7471C15.6437 76.6862 15.9063 80.6253 16.3002 84.4331C16.8254 89.8165 17.3506 95.3312 17.7445 100.715C18.2698 105.967 18.6637 111.219 19.0576 116.471C19.5828 121.854 20.108 127.238 20.5019 132.621C20.7645 136.56 22.8654 138.793 26.8045 138.793C44.9243 138.793 62.519 138.793 80.1136 138.793ZM78.4066 36.1135C61.8624 35.8509 45.3182 35.5883 28.774 35.457C25.0975 35.457 22.4715 37.5578 21.421 41.103C21.0271 42.416 21.2897 43.7291 21.1584 45.0421C21.0271 46.4864 21.421 46.8803 22.8654 46.8803C40.8539 46.8803 58.9738 46.8803 76.9623 46.8803C81.8205 46.8803 85.7596 48.7186 89.0422 52.2638C90.6178 53.9707 92.0622 55.6777 93.6378 57.3846C95.6074 59.6168 98.1021 60.9298 101.253 60.9298C112.414 60.9298 123.575 60.9298 134.736 60.9298C135.917 60.9298 136.18 60.5359 136.049 59.4855C136.049 54.2333 136.049 49.1125 136.049 43.8604C136.049 43.3352 136.049 42.8099 135.917 42.2847C134.998 38.6082 132.11 36.6387 127.777 36.6387C111.364 36.5074 94.8195 36.3761 78.4066 36.1135Z" fill="#9E9E9E"/>
<path d="M147.997 46.7491C147.735 46.7491 147.341 46.7491 146.947 46.7491C146.028 46.6178 145.371 46.2239 145.371 45.1734C145.371 44.123 145.765 43.4665 146.816 43.3352C148.654 43.2039 150.492 42.9413 152.33 42.81C154.694 42.6787 156.926 42.5474 159.289 42.4161C160.471 42.2848 161.259 42.9413 161.39 43.9917C161.522 45.1734 160.734 45.8299 159.421 45.9612C155.613 46.0925 151.805 46.4865 147.997 46.7491Z" fill="#9E9E9E"/>
<path d="M156.401 30.3354C156.532 31.1232 156.007 31.6484 155.35 32.0423C151.805 34.2745 148.26 36.5066 144.715 38.8701C143.796 39.5266 142.877 39.3953 142.22 38.4762C141.564 37.557 141.957 36.6379 142.745 36.1127C146.422 33.7493 150.098 31.3858 153.906 29.0223C155.088 28.2345 156.401 29.0223 156.401 30.3354Z" fill="#9E9E9E"/>
<path d="M142.483 21.9326C143.796 21.9326 144.583 23.1143 143.796 24.1648C141.826 26.7908 140.382 29.6795 139.2 32.8308C138.806 33.7499 138.018 34.1438 136.968 33.7499C136.049 33.356 135.655 32.5682 136.049 31.5178C137.23 28.3665 138.806 25.4778 140.907 22.8517C141.301 22.1952 141.957 21.9326 142.483 21.9326Z" fill="#9E9E9E"/>
<path d="M78.8006 108.725C87.7292 108.856 95.4761 111.876 101.91 118.047C103.223 119.36 103.486 120.279 102.566 121.198C101.779 121.986 100.728 121.855 99.4152 120.673C93.7691 115.29 87.0727 112.532 79.3258 112.401C70.791 112.27 63.4381 115.29 57.5294 121.592C57.0042 122.249 56.479 122.905 55.4286 122.774C54.6408 122.643 54.1155 122.118 53.8529 121.461C53.5903 120.673 53.9842 120.017 54.5095 119.491C59.2364 114.371 64.8824 111.088 71.7102 109.644C73.9423 108.856 76.3058 108.725 78.8006 108.725Z" fill="#9E9E9E"/>
<path d="M53.5903 96.5132C52.8025 96.5132 52.2773 95.988 51.8834 95.594C50.439 94.1497 48.9947 92.7054 47.5504 91.261C46.8939 90.6045 46.4999 90.4732 45.8434 91.261C44.1365 93.0993 42.2982 94.8062 40.46 96.6445C39.4096 97.6949 38.2278 97.9575 37.44 97.1697C36.5209 96.2506 36.6522 95.2001 37.8339 94.0184C39.5409 92.1802 41.3791 90.4732 43.2174 88.635C43.8739 87.9785 43.8739 87.5845 43.2174 87.0593C41.3791 85.2211 39.5409 83.3828 37.7026 81.6759C36.7835 80.7568 36.3896 79.8377 37.3087 78.7872C38.0965 77.8681 39.147 77.9994 40.3287 79.0498C42.1669 80.8881 44.0052 82.595 45.8434 84.5646C46.4999 85.2211 46.8939 85.2211 47.4191 84.5646C49.5199 82.4637 51.6208 80.3629 53.5903 78.3933C54.2468 77.7368 55.0347 77.2116 56.0851 77.8681C57.2668 78.5246 57.3981 79.8377 56.2164 81.0194C54.1155 83.1202 52.146 85.2211 50.0451 87.1906C49.3886 87.8472 49.2573 88.2411 50.0451 88.8976C51.7521 90.4732 53.1964 92.0489 54.7721 93.6245C55.4286 94.281 55.5599 94.9375 55.166 95.7253C54.9034 96.2506 54.3781 96.6445 53.5903 96.5132Z" fill="#9E9E9E"/>
<path d="M98.1021 74.9795C98.89 74.9795 99.4152 75.3734 99.9404 75.8986C101.779 77.7369 103.617 79.4438 105.324 81.4133C105.98 82.0699 106.374 82.0699 106.899 81.4133C108.212 79.969 109.657 78.656 110.97 77.3429C111.889 76.4238 112.808 76.0299 113.859 77.0803C114.909 77.9995 114.515 79.0499 113.596 79.969C112.283 81.282 110.839 82.7264 109.526 84.0394C108.869 84.6959 108.869 84.9585 109.526 85.6151C111.232 87.1907 112.808 88.8976 114.515 90.6046C114.778 90.8672 115.172 91.1298 115.434 91.5237C116.091 92.3115 116.222 93.2306 115.434 94.0185C114.515 94.8063 113.596 94.675 112.808 93.8871C110.839 92.0489 109 90.2107 107.162 88.2411C106.506 87.5846 106.112 87.4533 105.455 88.2411C103.879 89.9481 102.173 91.5237 100.597 93.0993C99.6778 94.0185 98.7586 94.5437 97.5769 93.4932C96.6578 92.7054 96.7891 91.655 97.9708 90.342C99.2839 89.0289 100.728 87.5846 102.041 86.2716C103.617 84.6959 103.617 84.6959 102.041 83.2516C100.334 81.5446 98.7586 79.969 97.0517 78.2621C96.3952 77.6056 96.2639 76.949 96.5265 76.0299C96.7891 75.3734 97.4456 75.1108 98.1021 74.9795Z" fill="#9E9E9E"/>
</svg>
