<svg width="16" height="21" viewBox="0 0 16 21" fill="none" xmlns="http://www.w3.org/2000/svg">
<path fill-rule="evenodd" clip-rule="evenodd" d="M4.9 0.5H11.07C13.78 0.5 15.97 1.57 16 4.29V19.47C16 19.64 15.96 19.81 15.88 19.96C15.75 20.2 15.53 20.38 15.26 20.46C15 20.54 14.71 20.5 14.47 20.36L7.99 17.12L1.5 20.36C1.351 20.439 1.18 20.49 1.01 20.49C0.45 20.49 0 20.03 0 19.47V4.29C0 1.57 2.2 0.5 4.9 0.5ZM4.22 8.12H11.75C12.18 8.12 12.53 7.769 12.53 7.33C12.53 6.89 12.18 6.54 11.75 6.54H4.22C3.79 6.54 3.44 6.89 3.44 7.33C3.44 7.769 3.79 8.12 4.22 8.12Z" fill="#642D91"/>
</svg>
