<svg width="20" height="20" viewBox="0 0 20 20" fill="none" xmlns="http://www.w3.org/2000/svg">
<path fill-rule="evenodd" clip-rule="evenodd" d="M8.40025 15.494H3.14941C2.80441 15.494 2.52441 15.214 2.52441 14.869C2.52441 14.524 2.80441 14.244 3.14941 14.244H8.40025C8.74525 14.244 9.02525 14.524 9.02525 14.869C9.02525 15.214 8.74525 15.494 8.40025 15.494Z" fill="#642D91"/>
<path fill-rule="evenodd" clip-rule="evenodd" d="M15.9922 7.41699H10.7422C10.3972 7.41699 10.1172 7.13699 10.1172 6.79199C10.1172 6.44699 10.3972 6.16699 10.7422 6.16699H15.9922C16.3372 6.16699 16.6172 6.44699 16.6172 6.79199C16.6172 7.13699 16.3372 7.41699 15.9922 7.41699Z" fill="#642D91"/>
<mask id="mask0_7588_21403" style="mask-type:luminance" maskUnits="userSpaceOnUse" x="2" y="4" width="6" height="6">
<path fill-rule="evenodd" clip-rule="evenodd" d="M2.5 4.16699H7.68817V9.32666H2.5V4.16699Z" fill="white"/>
</mask>
<g mask="url(#mask0_7588_21403)">
<path fill-rule="evenodd" clip-rule="evenodd" d="M5.09417 5.41663C4.35333 5.41663 3.75 6.01329 3.75 6.74746C3.75 7.48079 4.35333 8.07663 5.09417 8.07663C5.83583 8.07663 6.43833 7.48079 6.43833 6.74746C6.43833 6.01329 5.83583 5.41663 5.09417 5.41663ZM5.09417 9.32663C3.66417 9.32663 2.5 8.16996 2.5 6.74746C2.5 5.32496 3.66417 4.16663 5.09417 4.16663C6.525 4.16663 7.68833 5.32496 7.68833 6.74746C7.68833 8.16996 6.525 9.32663 5.09417 9.32663Z" fill="#642D91"/>
</g>
<path fill-rule="evenodd" clip-rule="evenodd" d="M14.4895 13.5067C13.7479 13.5067 13.1445 14.1034 13.1445 14.8367C13.1445 15.5709 13.7479 16.1667 14.4895 16.1667C15.2304 16.1667 15.8329 15.5709 15.8329 14.8367C15.8329 14.1034 15.2304 13.5067 14.4895 13.5067ZM14.4895 17.4167C13.0587 17.4167 11.8945 16.2592 11.8945 14.8367C11.8945 13.4142 13.0587 12.2567 14.4895 12.2567C15.9195 12.2567 17.0829 13.4142 17.0829 14.8367C17.0829 16.2592 15.9195 17.4167 14.4895 17.4167Z" fill="#642D91"/>
</svg>
