<svg width="56" height="56" viewBox="0 0 56 56" fill="none" xmlns="http://www.w3.org/2000/svg">
<path d="M29.7497 4.6665C39.594 4.67584 44.6853 4.85317 47.917 8.0825C51.1463 11.3165 51.3237 16.4055 51.333 26.2498H39.867C40.706 25.2027 41.3086 23.9864 41.6333 22.6845C42.8863 17.6632 38.3363 13.1132 33.315 14.3662C31.9803 14.6998 30.7717 15.3135 29.7497 16.1325V4.6665ZM51.333 29.7498C51.3237 39.5918 51.1463 44.6832 47.917 47.9148C44.683 51.1465 39.594 51.3215 29.7497 51.3332V32.9535C30.67 34.7956 32.0854 36.3448 33.837 37.4275C35.5886 38.5102 37.6071 39.0835 39.6663 39.0832C40.1305 39.0832 40.5756 38.8988 40.9038 38.5706C41.232 38.2424 41.4163 37.7973 41.4163 37.3332C41.4163 36.869 41.232 36.4239 40.9038 36.0957C40.5756 35.7675 40.1305 35.5832 39.6663 35.5832C37.9592 35.5831 36.302 35.0073 34.9627 33.9487C33.6234 32.8902 32.6804 31.4108 32.286 29.7498H51.333ZM26.2497 51.3332C16.4077 51.3215 11.3163 51.1465 8.08467 47.9148C4.85301 44.6855 4.67801 39.5918 4.66634 29.7498H23.7133C23.319 31.4108 22.3759 32.8902 21.0366 33.9487C19.6973 35.0073 18.0401 35.5831 16.333 35.5832C15.8689 35.5832 15.4238 35.7675 15.0956 36.0957C14.7674 36.4239 14.583 36.869 14.583 37.3332C14.583 37.7973 14.7674 38.2424 15.0956 38.5706C15.4238 38.8988 15.8689 39.0832 16.333 39.0832C18.3922 39.0835 20.4108 38.5102 22.1624 37.4275C23.914 36.3448 25.3293 34.7956 26.2497 32.9535V51.3332ZM4.66634 26.2498C4.67801 16.4055 4.85301 11.3142 8.08467 8.0825C11.314 4.85317 16.4077 4.67584 26.2497 4.6665V16.1325C25.2032 15.2939 23.9877 14.6913 22.6867 14.3662C17.663 13.1108 13.1107 17.6608 14.3683 22.6845C14.6924 23.9862 15.2942 25.2025 16.1323 26.2498H4.66634Z" fill="white"/>
<path d="M34.1649 17.7635C32.9043 18.0784 31.785 18.8056 30.9851 19.8295C30.1852 20.8535 29.7506 22.1155 29.7503 23.4149V26.2499H32.5853C33.8846 26.2496 35.1466 25.8149 36.1706 25.015C37.1946 24.2151 37.9218 23.0959 38.2366 21.8352C38.3765 21.2728 38.3685 20.6838 38.2135 20.1254C38.0584 19.5669 37.7616 19.0581 37.3518 18.6483C36.942 18.2385 36.4332 17.9417 35.8748 17.7867C35.3164 17.6316 34.7273 17.6237 34.1649 17.7635ZM26.2503 23.4149V26.2499H23.4153C20.7436 26.2499 18.4126 24.4299 17.7639 21.8352C17.6239 21.2726 17.6318 20.6833 17.7869 20.1246C17.9421 19.5659 18.2391 19.0569 18.6492 18.647C19.0593 18.2371 19.5685 17.9404 20.1273 17.7856C20.686 17.6307 21.2754 17.6232 21.8379 17.7635C23.0981 18.0788 24.2169 18.8062 25.0163 19.8301C25.8158 20.8541 26.2501 22.1158 26.2503 23.4149Z" fill="white"/>
</svg>
