<svg width="18" height="18" viewBox="0 0 18 18" fill="none" xmlns="http://www.w3.org/2000/svg">
<path fill-rule="evenodd" clip-rule="evenodd" d="M5.38734 1.91699C3.279 1.91699 1.9165 3.36116 1.9165 5.59699V12.4037C1.9165 14.6395 3.279 16.0837 5.38734 16.0837H12.6107C14.7198 16.0837 16.0832 14.6395 16.0832 12.4037V5.59699C16.0832 3.36116 14.7198 1.91699 12.6115 1.91699H5.38734ZM12.6107 17.3337H5.38734C2.56317 17.3337 0.666504 15.352 0.666504 12.4037V5.59699C0.666504 2.64866 2.56317 0.666992 5.38734 0.666992H12.6115C15.4357 0.666992 17.3332 2.64866 17.3332 5.59699V12.4037C17.3332 15.352 15.4357 17.3337 12.6107 17.3337Z" fill="#07BD0E"/>
<path fill-rule="evenodd" clip-rule="evenodd" d="M8.01133 11.6032C7.85216 11.6032 7.69133 11.5424 7.56966 11.4199L5.59133 9.4424C5.34716 9.19823 5.34716 8.80323 5.59133 8.55906C5.83549 8.3149 6.23049 8.3149 6.47466 8.55906L8.01133 10.0941L11.5247 6.58156C11.7688 6.3374 12.1638 6.3374 12.408 6.58156C12.6522 6.82573 12.6522 7.22073 12.408 7.4649L8.45299 11.4199C8.33133 11.5424 8.17133 11.6032 8.01133 11.6032Z" fill="#07BD0E"/>
</svg>
