<svg width="52" height="38" viewBox="0 0 52 38" fill="none" xmlns="http://www.w3.org/2000/svg">
<path fill-rule="evenodd" clip-rule="evenodd" d="M16.2976 10.2102C16.2976 15.6927 20.6683 20.0889 26.1193 20.0889C31.5702 20.0889 35.9409 15.6927 35.9409 10.2102C35.9409 4.72546 31.5702 0.333496 26.1193 0.333496C20.6683 0.333496 16.2976 4.72546 16.2976 10.2102ZM26.1193 37.6668C34.1254 37.6668 40.9615 36.3976 40.9615 31.3206C40.9615 26.2414 34.1692 24.9259 26.1193 24.9259C18.1132 24.9259 11.2771 26.1952 11.2771 31.2743C11.2771 36.3513 18.0693 37.6668 26.1193 37.6668ZM12.1004 10.3884C12.1004 13.1832 12.9341 15.7869 14.3966 17.9513C14.547 18.1741 14.4133 18.4746 14.1479 18.5208C13.7823 18.5839 13.4041 18.6196 13.0197 18.6301C9.18591 18.731 5.74487 16.2492 4.79425 12.5129C3.38608 6.96304 7.52076 1.98059 12.7857 1.98059C13.3582 1.98059 13.9056 2.04153 14.4383 2.1508C14.5115 2.16761 14.5888 2.20123 14.6306 2.26638C14.6807 2.34623 14.6431 2.4534 14.5929 2.52275C13.0114 4.75235 12.1004 7.47159 12.1004 10.3884ZM5.75114 22.5295C3.17507 23.0359 1.48067 24.0698 0.778671 25.5723C0.185318 26.8059 0.185318 28.2369 0.778671 29.4684C1.85256 31.7988 5.31448 32.5469 6.65997 32.7403C6.93785 32.7823 7.1614 32.5406 7.13215 32.2611C6.44478 25.8035 11.9124 22.7417 13.3268 22.0378C13.3874 22.0062 13.4 21.9579 13.3937 21.9285C13.3895 21.9075 13.3645 21.8738 13.3185 21.8675C10.2577 21.8108 6.9671 22.2311 5.75114 22.5295ZM38.9804 18.6299C38.596 18.6194 38.2199 18.5858 37.8522 18.5206C37.5869 18.4744 37.4531 18.1739 37.6036 17.9511C39.0661 15.7867 39.8997 13.183 39.8997 10.3881C39.8997 7.47138 38.9888 4.75214 37.4072 2.52254C37.357 2.45319 37.3215 2.34602 37.3696 2.26617C37.4114 2.20313 37.4908 2.1674 37.5618 2.15059C38.0966 2.04132 38.644 1.98038 39.2165 1.98038C44.4815 1.98038 48.6161 6.96283 47.2059 12.5127C46.2553 16.249 42.8142 18.7308 38.9804 18.6299ZM38.6075 21.9272C38.6012 21.9587 38.6137 22.005 38.6722 22.0386C40.0888 22.7426 45.5564 25.8043 44.869 32.2599C44.8398 32.5415 45.0612 32.781 45.3391 32.7411C46.6846 32.5478 50.1465 31.7997 51.2204 29.4692C51.8159 28.2357 51.8159 26.8067 51.2204 25.5732C50.5184 24.0707 48.8261 23.0368 46.25 22.5282C45.032 22.2319 41.7435 21.8116 38.6806 21.8684C38.6346 21.8747 38.6116 21.9083 38.6075 21.9272Z" fill="white"/>
</svg>
