<svg width="21" height="20" viewBox="0 0 21 20" fill="none" xmlns="http://www.w3.org/2000/svg">
<mask id="mask0_7956_2832" style="mask-type:luminance" maskUnits="userSpaceOnUse" x="0" y="0" width="21" height="21">
<path fill-rule="evenodd" clip-rule="evenodd" d="M0 0.5H20.4725V20.001H0V0.5Z" fill="white"/>
</mask>
<g mask="url(#mask0_7956_2832)">
<path fill-rule="evenodd" clip-rule="evenodd" d="M1.82371 9.62312C3.22571 13.9851 8.76471 17.5121 10.2367 18.3851C11.7137 17.5031 17.2927 13.9371 18.6497 9.62712C19.5407 6.84112 18.7137 3.31212 15.4277 2.25312C13.8357 1.74212 11.9787 2.05312 10.6967 3.04512C10.4287 3.25112 10.0567 3.25512 9.78671 3.05112C8.42871 2.03012 6.65471 1.73112 5.03771 2.25312C1.75671 3.31112 0.932712 6.84012 1.82371 9.62312ZM10.2377 20.0011C10.1137 20.0011 9.99071 19.9711 9.87871 19.9101C9.56571 19.7391 2.19271 15.6751 0.395713 10.0811C0.394713 10.0811 0.394713 10.0801 0.394713 10.0801C-0.733288 6.55812 0.522713 2.13212 4.57771 0.825118C6.48171 0.209118 8.55671 0.480118 10.2347 1.53912C11.8607 0.511118 14.0207 0.227118 15.8867 0.825118C19.9457 2.13412 21.2057 6.55912 20.0787 10.0801C18.3397 15.6101 10.9127 19.7351 10.5977 19.9081C10.4857 19.9701 10.3617 20.0011 10.2377 20.0011Z" fill="#642D91"/>
</g>
<path fill-rule="evenodd" clip-rule="evenodd" d="M16.1537 8.12502C15.7667 8.12502 15.4387 7.82802 15.4067 7.43602C15.3407 6.61402 14.7907 5.92002 14.0077 5.66702C13.6127 5.53902 13.3967 5.11602 13.5237 4.72302C13.6527 4.32902 14.0717 4.11502 14.4677 4.23902C15.8307 4.68002 16.7857 5.88702 16.9027 7.31402C16.9357 7.72702 16.6287 8.08902 16.2157 8.12202C16.1947 8.12402 16.1747 8.12502 16.1537 8.12502Z" fill="#642D91"/>
</svg>
