<svg width="242" height="50" viewBox="0 0 242 50" fill="none" xmlns="http://www.w3.org/2000/svg">
<path d="M230.176 23.8465C229.087 29.5059 225.172 30.0434 222.879 30.0434C220.146 30.0434 219.559 28.6027 219.5 27.4777C219.494 27.3652 219.398 27.2809 219.286 27.2871C219.178 27.2934 219.094 27.3809 219.094 27.4902C219.084 28.3527 219.01 29.2027 218.873 30.0434C218.585 31.8965 217.977 33.6746 217.055 35.3934C215.7 37.9621 213.798 40.0152 211.368 41.5965C208.942 43.1621 206.181 43.9402 203.094 43.9402C200.593 43.9402 198.291 43.4246 196.212 42.3746C194.121 41.334 192.455 39.8184 191.223 37.834C189.992 35.8559 189.371 33.4996 189.371 30.7652C189.371 28.0309 190.054 25.2277 191.425 22.6684C192.781 20.1121 194.67 18.0434 197.112 16.4746C199.538 14.909 202.3 14.1184 205.387 14.1184H231.954C232.081 14.1184 232.18 14.2371 232.156 14.3652C231.067 20.0246 227.154 20.5621 224.858 20.5621H205.163C203.42 20.5621 201.89 21.0246 200.571 21.9402C199.24 22.8559 198.232 24.059 197.55 25.5527C196.851 27.0559 196.516 28.6215 196.516 30.2621C196.516 32.4715 197.115 34.2246 198.331 35.5277C199.551 36.8434 201.207 37.4965 203.32 37.4965C205.086 37.4965 206.628 37.0434 207.937 36.1152C209.243 35.2152 210.251 33.9965 210.934 32.5059C211.62 31.0152 211.967 29.4496 211.967 27.7934C211.967 26.2809 211.685 24.9777 211.123 23.8934C211.052 23.759 211.154 23.5965 211.306 23.5965H229.974C230.102 23.5965 230.201 23.7152 230.176 23.8434V23.8465ZM25.1649 37.109H21.7179C20.5576 37.109 19.7757 36.9121 19.3786 36.5215C18.9784 36.1277 18.907 35.409 19.1614 34.3652L21.9072 21.0246H28.5746C28.6708 21.0246 28.7546 20.9559 28.7732 20.859L29.9397 15.1059C29.9646 14.9777 29.8684 14.859 29.7412 14.859H23.173L24.9322 6.30586C24.957 6.17773 24.8608 6.05898 24.7336 6.05898H18.4013C18.3051 6.05898 18.2214 6.12773 18.2027 6.22148L16.4157 14.859H11.2158C11.1196 14.859 11.0358 14.9277 11.0172 15.0246L9.85064 20.7777C9.82582 20.9059 9.922 21.0246 10.0492 21.0246H15.1405L12.3575 34.4777C11.9201 36.609 11.8766 38.3184 12.221 39.6059C12.5654 40.8934 13.3627 41.8184 14.6162 42.3809C15.8665 42.9402 17.6908 43.2215 20.086 43.2215H23.9487C24.0449 43.2215 24.1286 43.1527 24.1473 43.059L25.3666 37.3621C25.3945 37.234 25.2983 37.1121 25.168 37.1121L25.1649 37.109ZM60.804 15.1027L55.0116 43.0559C54.9929 43.1527 54.9092 43.2184 54.813 43.2184H48.4248C48.2945 43.2184 48.1983 43.0996 48.2263 42.9715L48.9367 39.5746H48.6575C48.5924 39.5746 48.5334 39.6059 48.4962 39.6559C47.4196 41.109 46.1537 42.184 44.6924 42.8809C43.2032 43.5902 41.5713 43.9465 39.7935 43.9465C37.5441 43.9465 35.5275 43.434 33.7497 42.4059C31.9719 41.3777 30.5727 39.9215 29.5581 38.034C28.5405 36.1465 28.0317 33.9121 28.0317 31.334C28.0317 28.459 28.6584 25.684 29.9087 23.009C31.159 20.3371 32.9306 18.1871 35.2172 16.5621C37.5038 14.9371 40.0789 14.1246 42.9457 14.1246C45.1237 14.1246 47.0845 14.5809 48.825 15.4965C50.5315 16.3934 51.8004 17.7277 52.635 19.4996C52.6691 19.5715 52.7405 19.6184 52.818 19.6184H52.9049C53.0011 19.6184 53.0849 19.5496 53.1035 19.4559L54.0156 15.0184C54.0343 14.9215 54.118 14.8559 54.2142 14.8559H60.6024C60.7327 14.8559 60.8289 14.9746 60.8009 15.1027H60.804ZM51.1675 27.6934C51.1675 25.4871 50.5408 23.7402 49.2904 22.4527C48.0401 21.1652 46.3058 20.5184 44.0936 20.5184C42.2445 20.5184 40.6374 20.9934 39.2754 21.9465C37.9133 22.8996 36.8802 24.1246 36.1728 25.6184C35.4654 27.1121 35.1117 28.7027 35.1117 30.384C35.1117 32.5902 35.757 34.3371 37.0446 35.6246C38.3322 36.9152 40.0665 37.559 42.2445 37.559C44.0936 37.559 45.7008 37.084 47.0628 36.1309C48.4248 35.1777 49.4487 33.9559 50.1405 32.459C50.8293 30.9652 51.1737 29.3746 51.1737 27.6965L51.1675 27.6934ZM81.8953 29.4027C80.3874 28.0402 78.1133 27.0215 75.0634 26.3465C73.6114 26.0121 72.4604 25.6746 71.6072 25.3371C70.754 24.9996 70.1397 24.6277 69.758 24.2152C69.4044 23.834 69.2151 23.3902 69.1903 22.8809C69.1468 22.0527 69.5936 21.2652 70.3165 20.8684C71.0208 20.484 71.9857 20.2902 73.2143 20.2902C74.9548 20.2902 76.3789 20.6277 77.4865 21.2996C78.5321 21.9371 79.1495 22.7402 79.3357 23.709C79.3543 23.8059 79.4349 23.8809 79.5342 23.8809H85.9038C86.0186 23.8809 86.1117 23.784 86.1086 23.6715C86.0713 21.8871 85.5439 20.2777 84.5324 18.8371C83.4776 17.3434 82.0101 16.184 80.1237 15.3621C78.2374 14.5402 76.078 14.1277 73.6456 14.1277C71.5048 14.1277 69.5812 14.4934 67.8748 15.2215C66.1684 15.9496 64.8064 16.9777 63.7918 18.3059C62.7773 19.634 62.2685 21.1934 62.2685 22.9871C62.2685 24.409 62.6035 25.659 63.2768 26.7434C63.9469 27.8277 64.9801 28.7527 66.3794 29.5184C67.7755 30.284 69.5812 30.9309 71.7964 31.4527C73.1398 31.7527 74.1916 32.0684 74.9548 32.4059C75.7181 32.7402 76.261 33.1152 76.5868 33.5277C76.9126 33.9402 77.077 34.4059 77.077 34.9277C77.077 35.8996 76.6674 36.6184 75.8515 37.084C75.0355 37.5527 73.9186 37.784 72.5038 37.784C70.5802 37.784 69.0289 37.4121 67.85 36.6621C66.733 35.9559 66.1125 35.0465 65.9884 33.934C65.976 33.8277 65.8922 33.7465 65.7868 33.7465H59.4203C59.3117 33.7465 59.2186 33.834 59.2155 33.9465C59.1473 35.8465 59.6127 37.5465 60.6148 39.0434C61.6479 40.5934 63.1465 41.7996 65.1073 42.659C67.065 43.5184 69.3702 43.9465 72.0198 43.9465C74.2692 43.9465 76.32 43.584 78.1722 42.8527C80.0244 42.1246 81.4826 41.059 82.5561 39.659C83.6265 38.259 84.1601 36.6027 84.1601 34.6965C84.1601 32.5309 83.4062 30.7652 81.9015 29.3996L81.8953 29.4027ZM105.112 28.5965C105.081 28.5246 105.093 28.4402 105.143 28.3777L116.418 15.1934C116.532 15.059 116.436 14.8527 116.262 14.8527H109.071C109.012 14.8527 108.953 14.8777 108.915 14.9246L99.8374 25.6559C99.7971 25.7027 99.7412 25.7277 99.6823 25.7277H95.8351C95.7048 25.7277 95.6086 25.609 95.6365 25.4809L99.5737 6.29961C99.5985 6.17148 99.5023 6.05273 99.3751 6.05273H93.0428C92.9466 6.05273 92.8628 6.12148 92.8442 6.21836L85.2988 42.9715C85.274 43.0996 85.3701 43.2184 85.4974 43.2184H91.8297C91.9259 43.2184 92.0096 43.1496 92.0282 43.0527L94.2466 32.2277C94.2652 32.1309 94.349 32.0621 94.4451 32.0621H99.3193C99.3999 32.0621 99.4744 32.109 99.5054 32.184L104.352 43.0965C104.386 43.1715 104.457 43.2184 104.538 43.2184H111.277C111.425 43.2184 111.525 43.0652 111.463 42.9277L105.112 28.5934V28.5965ZM138.973 15.8371C137.592 14.6965 135.725 14.1277 133.367 14.1277C131.626 14.1277 130.094 14.4746 128.769 15.1652C127.469 15.8434 126.321 16.8715 125.319 18.2496C125.282 18.3027 125.219 18.334 125.154 18.334H125.074C124.943 18.334 124.847 18.2152 124.875 18.0871L127.289 6.30586C127.314 6.17773 127.218 6.05898 127.09 6.05898H120.758C120.662 6.05898 120.578 6.12773 120.559 6.22461L113.014 42.9777C112.989 43.1059 113.085 43.2246 113.213 43.2246H119.545C119.641 43.2246 119.725 43.1559 119.743 43.059L123.194 26.2402C123.591 24.4465 124.338 23.0434 125.424 22.0371C126.513 21.0277 127.928 20.5246 129.669 20.5246C131.738 20.5246 133.162 21.1965 133.941 22.5434C134.72 23.8871 134.912 25.534 134.512 27.4746L131.35 42.9777C131.325 43.1059 131.422 43.2246 131.549 43.2246H137.881C137.977 43.2246 138.061 43.1559 138.08 43.0621L141.53 26.2996C142.001 24.2059 142.038 22.2277 141.638 20.359C141.238 18.4902 140.348 16.9871 138.97 15.8465L138.973 15.8371ZM170.486 34.1121C170.067 35.8465 169.251 37.4434 168.041 38.9027C166.769 40.4371 165.137 41.659 163.142 42.5746C161.147 43.4902 158.951 43.9465 156.555 43.9465C154.16 43.9465 151.827 43.4215 149.776 42.3777C147.725 41.334 146.103 39.8277 144.905 37.8652C143.708 35.9027 143.109 33.5777 143.109 30.8871C143.109 28.0465 143.782 25.3309 145.122 22.7309C146.466 20.134 148.343 18.0496 150.757 16.4809C153.167 14.9121 155.864 14.1246 158.839 14.1246C161.814 14.1246 164.628 14.909 166.84 16.4809C169.052 18.0496 170.57 20.1152 171.386 22.6746C172.186 25.1871 172.23 27.8559 171.51 30.6746C171.485 30.7652 171.404 30.8309 171.311 30.8309H149.969C149.978 33.084 150.602 34.8309 151.846 36.0715C153.096 37.3246 154.812 37.9496 156.99 37.9496C158.767 37.9496 160.229 37.5496 161.371 36.7434C162.475 35.9684 163.282 35.0434 163.794 33.9715C163.828 33.8996 163.896 33.8559 163.977 33.8559H170.284C170.418 33.8559 170.517 33.9809 170.486 34.1121ZM150.844 25.8996H165.565C165.447 24.9871 165.193 24.1652 164.802 23.434C164.237 22.3871 163.431 21.5746 162.379 20.9934C161.327 20.4152 160.074 20.1246 158.622 20.1246C156.627 20.1246 154.967 20.6934 153.642 21.834C152.339 22.9559 151.408 24.309 150.844 25.8996ZM191.102 21.3652L192.486 14.8246C192.514 14.6965 192.415 14.5746 192.288 14.5746H190.308C188.53 14.5746 187.113 14.9215 186.061 15.6121C185.034 16.2871 184.146 17.434 183.396 19.0527C183.362 19.1246 183.29 19.1715 183.213 19.1715H183.16C183.03 19.1715 182.933 19.0496 182.961 18.9215L183.78 15.1027C183.808 14.9746 183.712 14.8527 183.582 14.8527H177.249C177.153 14.8527 177.07 14.9215 177.051 15.0152L171.203 42.9684C171.175 43.0965 171.274 43.2152 171.401 43.2152H177.733C177.83 43.2152 177.913 43.1465 177.932 43.0527L181.218 27.3527C181.581 25.484 182.245 24.0465 183.206 23.0371C184.168 22.0277 185.484 21.5246 187.153 21.5246H190.907C191.003 21.5246 191.087 21.4559 191.106 21.3621L191.102 21.3652Z" fill="#642D91"/>
</svg>
