<svg width="230" height="46" viewBox="0 0 230 46" fill="none" xmlns="http://www.w3.org/2000/svg">
<path d="M218.762 21.9396C217.727 27.1462 214.006 27.6407 211.827 27.6407C209.229 27.6407 208.672 26.3153 208.616 25.2803C208.61 25.1768 208.519 25.0992 208.412 25.105C208.309 25.1107 208.23 25.1912 208.23 25.2918C208.221 26.0853 208.15 26.8673 208.02 27.6407C207.746 29.3456 207.168 30.9815 206.292 32.5627C205.004 34.926 203.196 36.8148 200.887 38.2696C198.581 39.71 195.957 40.4258 193.023 40.4258C190.646 40.4258 188.458 39.9515 186.483 38.9855C184.495 38.0281 182.912 36.6337 181.741 34.8081C180.571 32.9882 179.981 30.8205 179.981 28.3048C179.981 25.7892 180.63 23.2103 181.933 20.8557C183.222 18.504 185.017 16.6007 187.338 15.1575C189.644 13.7171 192.268 12.9897 195.202 12.9897H220.452C220.573 12.9897 220.667 13.099 220.644 13.2168C219.609 18.4235 215.89 18.918 213.708 18.918H194.99C193.333 18.918 191.879 19.3435 190.626 20.1858C189.361 21.0282 188.402 22.1351 187.754 23.5093C187.09 24.8922 186.772 26.3326 186.772 27.842C186.772 29.8746 187.341 31.4875 188.497 32.6863C189.656 33.8967 191.23 34.4976 193.238 34.4976C194.916 34.4976 196.382 34.0807 197.626 33.2268C198.867 32.3988 199.826 31.2776 200.474 29.9062C201.126 28.5348 201.456 27.0945 201.456 25.5707C201.456 24.1792 201.188 22.9803 200.654 21.9827C200.587 21.8591 200.684 21.7096 200.828 21.7096H218.571C218.692 21.7096 218.786 21.8188 218.762 21.9367V21.9396ZM23.9171 34.1411H20.641C19.5382 34.1411 18.7951 33.96 18.4177 33.6006C18.0373 33.2383 17.9695 32.5771 18.2113 31.6168L20.8209 19.3435H27.1577C27.2491 19.3435 27.3287 19.2802 27.3464 19.1911L28.4551 13.8982C28.4787 13.7803 28.3873 13.6711 28.2664 13.6711H22.024L23.6959 5.80221C23.7195 5.68434 23.6281 5.57509 23.5072 5.57509H17.4889C17.3974 5.57509 17.3178 5.63834 17.3001 5.72459L15.6017 13.6711H10.6596C10.5682 13.6711 10.4886 13.7343 10.4709 13.8235L9.36219 19.1163C9.3386 19.2342 9.43001 19.3435 9.5509 19.3435H14.3898L11.7448 31.7203C11.329 33.6811 11.2877 35.2537 11.615 36.4382C11.9423 37.6227 12.7001 38.4737 13.8914 38.9912C15.0798 39.5058 16.8136 39.7646 19.09 39.7646H22.7612C22.8526 39.7646 22.9322 39.7013 22.9499 39.6151L24.1087 34.374C24.1353 34.2561 24.0439 34.144 23.92 34.144L23.9171 34.1411ZM57.789 13.8953L52.2837 39.6122C52.266 39.7013 52.1864 39.7617 52.095 39.7617H46.0236C45.8997 39.7617 45.8083 39.6525 45.8349 39.5346L46.5101 36.4095H46.2448C46.1828 36.4095 46.1268 36.4382 46.0914 36.4842C45.0682 37.8211 43.8651 38.8101 42.4763 39.4512C41.0609 40.1038 39.5099 40.4316 37.8203 40.4316C35.6824 40.4316 33.7658 39.9601 32.0762 39.0142C30.3865 38.0683 29.0567 36.7286 28.0924 34.9921C27.1253 33.2556 26.6417 31.2 26.6417 28.8281C26.6417 26.1831 27.2373 23.6301 28.4256 21.1691C29.614 18.711 31.2977 16.733 33.4709 15.238C35.6441 13.743 38.0915 12.9955 40.8162 12.9955C42.8862 12.9955 44.7497 13.4152 46.404 14.2576C48.0258 15.0827 49.2318 16.3103 50.025 17.9405C50.0574 18.0066 50.1253 18.0497 50.199 18.0497H50.2815C50.373 18.0497 50.4526 17.9865 50.4703 17.9002L51.3372 13.8177C51.3549 13.7286 51.4345 13.6682 51.5259 13.6682H57.5973C57.7212 13.6682 57.8126 13.7775 57.786 13.8953H57.789ZM48.6303 25.4787C48.6303 23.449 48.0346 21.8418 46.8463 20.6573C45.658 19.4728 44.0096 18.8777 41.9072 18.8777C40.1497 18.8777 38.6223 19.3147 37.3278 20.1916C36.0333 21.0685 35.0514 22.1955 34.3791 23.5697C33.7068 24.944 33.3706 26.4073 33.3706 27.9541C33.3706 29.9838 33.984 31.591 35.2077 32.7755C36.4314 33.9628 38.0798 34.5551 40.1497 34.5551C41.9072 34.5551 43.4346 34.1181 44.7291 33.2412C46.0236 32.3643 46.9967 31.2402 47.6542 29.8631C48.3088 28.4888 48.6362 27.0255 48.6362 25.4816L48.6303 25.4787ZM77.8344 27.0513C76.4013 25.7978 74.2399 24.8606 71.3413 24.2396C69.9613 23.932 68.8673 23.6215 68.0564 23.311C67.2455 23.0005 66.6617 22.6583 66.299 22.2788C65.9628 21.9281 65.7829 21.5198 65.7594 21.0512C65.7181 20.2893 66.1427 19.5648 66.8297 19.1997C67.4991 18.8461 68.4162 18.6678 69.5838 18.6678C71.2381 18.6678 72.5915 18.9783 73.6442 19.5965C74.6379 20.183 75.2247 20.9218 75.4017 21.8131C75.4194 21.9022 75.496 21.9712 75.5904 21.9712H81.6441C81.7532 21.9712 81.8417 21.8821 81.8387 21.7786C81.8033 20.137 81.302 18.6563 80.3408 17.331C79.3382 15.9567 77.9435 14.8901 76.1506 14.134C74.3578 13.3778 72.3055 12.9983 69.9937 12.9983C67.9591 12.9983 66.1309 13.3347 64.5091 14.0046C62.8873 14.6745 61.5928 15.6203 60.6286 16.8422C59.6644 18.0641 59.1808 19.4987 59.1808 21.149C59.1808 22.4571 59.4992 23.6071 60.1391 24.6047C60.776 25.6023 61.7579 26.4533 63.0878 27.1577C64.4147 27.8621 66.1309 28.4572 68.2363 28.9373C69.5131 29.2133 70.5127 29.5037 71.2381 29.8142C71.9635 30.1218 72.4795 30.4668 72.7891 30.8463C73.0987 31.2258 73.255 31.6542 73.255 32.1343C73.255 33.0285 72.8658 33.6897 72.0903 34.1181C71.3147 34.5493 70.2532 34.7621 68.9086 34.7621C67.0804 34.7621 65.606 34.42 64.4855 33.73C63.424 33.0802 62.8342 32.2436 62.7163 31.2201C62.7045 31.1223 62.6249 31.0476 62.5246 31.0476H56.4739C56.3706 31.0476 56.2822 31.1281 56.2792 31.2316C56.2144 32.9796 56.6567 34.5436 57.6091 35.9207C58.591 37.3467 60.0153 38.4565 61.8788 39.2471C63.7395 40.0377 65.9304 40.4316 68.4486 40.4316C70.5864 40.4316 72.5355 40.0981 74.2959 39.4253C76.0563 38.7555 77.4422 37.7751 78.4624 36.4871C79.4797 35.1991 79.9869 33.6753 79.9869 31.9216C79.9869 29.9292 79.2704 28.3048 77.8403 27.0485L77.8344 27.0513ZM99.8996 26.3096C99.8701 26.2435 99.8819 26.1658 99.9291 26.1083L110.645 13.9787C110.754 13.8551 110.662 13.6653 110.497 13.6653H103.662C103.606 13.6653 103.55 13.6883 103.515 13.7315L94.8868 23.6042C94.8485 23.6473 94.7954 23.6703 94.7394 23.6703H91.083C90.9591 23.6703 90.8677 23.5611 90.8942 23.4432L94.6362 5.79646C94.6597 5.67859 94.5683 5.56934 94.4474 5.56934H88.4291C88.3377 5.56934 88.2581 5.63259 88.2404 5.72171L81.0691 39.5346C81.0455 39.6525 81.1369 39.7617 81.2578 39.7617H87.2762C87.3676 39.7617 87.4472 39.6985 87.4649 39.6093L89.5732 29.6503C89.5909 29.5612 89.6705 29.498 89.7619 29.498H94.3944C94.471 29.498 94.5418 29.5411 94.5713 29.6101L99.1772 39.6496C99.2096 39.7186 99.2774 39.7617 99.3541 39.7617H105.759C105.9 39.7617 105.995 39.6208 105.936 39.4943L99.8996 26.3067V26.3096ZM132.082 14.571C130.77 13.5216 128.995 12.9983 126.754 12.9983C125.099 12.9983 123.643 13.3175 122.384 13.9528C121.148 14.5767 120.057 15.5226 119.105 16.7905C119.069 16.8393 119.01 16.8681 118.948 16.8681H118.872C118.748 16.8681 118.656 16.7588 118.683 16.641L120.977 5.80221C121.001 5.68434 120.909 5.57509 120.788 5.57509H114.77C114.679 5.57509 114.599 5.63834 114.581 5.72746L107.41 39.5403C107.386 39.6582 107.478 39.7675 107.599 39.7675H113.617C113.708 39.7675 113.788 39.7042 113.806 39.6151L117.085 24.1418C117.462 22.4916 118.173 21.2007 119.205 20.275C120.24 19.3463 121.584 18.8835 123.239 18.8835C125.206 18.8835 126.559 19.5016 127.299 20.7407C128.039 21.977 128.222 23.4921 127.842 25.2775L124.837 39.5403C124.813 39.6582 124.905 39.7675 125.026 39.7675H131.044C131.135 39.7675 131.215 39.7042 131.233 39.618L134.512 24.1965C134.96 22.2702 134.995 20.4503 134.615 18.7311C134.234 17.0118 133.388 15.629 132.079 14.5796L132.082 14.571ZM162.032 31.384C161.634 32.9796 160.858 34.4487 159.708 35.7913C158.499 37.203 156.948 38.3271 155.052 39.1695C153.156 40.0118 151.069 40.4316 148.792 40.4316C146.516 40.4316 144.298 39.9486 142.349 38.9883C140.4 38.0281 138.858 36.6423 137.72 34.8368C136.582 33.0313 136.013 30.8923 136.013 28.417C136.013 25.8036 136.652 23.3052 137.926 20.9132C139.203 18.5241 140.987 16.6065 143.281 15.1632C145.572 13.72 148.135 12.9955 150.963 12.9955C153.79 12.9955 156.465 13.7171 158.567 15.1632C160.67 16.6065 162.112 18.5068 162.887 20.8615C163.648 23.173 163.689 25.6282 163.005 28.2215C162.982 28.3048 162.905 28.3652 162.816 28.3652H142.532C142.541 30.4381 143.134 32.0452 144.316 33.1866C145.504 34.3395 147.135 34.9145 149.205 34.9145C150.895 34.9145 152.284 34.5465 153.369 33.8047C154.418 33.0917 155.185 32.2407 155.672 31.2546C155.704 31.1885 155.769 31.1482 155.846 31.1482H161.84C161.967 31.1482 162.062 31.2632 162.032 31.384ZM143.364 23.8285H157.355C157.243 22.989 157.002 22.2328 156.63 21.5601C156.093 20.597 155.327 19.8495 154.327 19.3147C153.327 18.7828 152.136 18.5155 150.756 18.5155C148.86 18.5155 147.283 19.0387 146.023 20.0881C144.785 21.1202 143.9 22.3651 143.364 23.8285ZM181.626 19.6568L182.941 13.6395C182.968 13.5216 182.874 13.4095 182.753 13.4095H180.871C179.182 13.4095 177.834 13.7286 176.835 14.364C175.859 14.985 175.015 16.0401 174.302 17.5293C174.269 17.5955 174.201 17.6386 174.128 17.6386H174.078C173.954 17.6386 173.862 17.5265 173.889 17.4086L174.667 13.8953C174.694 13.7775 174.602 13.6653 174.479 13.6653H168.46C168.369 13.6653 168.289 13.7286 168.272 13.8148L162.713 39.5317C162.687 39.6496 162.781 39.7588 162.902 39.7588H168.92C169.012 39.7588 169.091 39.6956 169.109 39.6093L172.232 25.1653C172.577 23.4461 173.208 22.1236 174.122 21.195C175.036 20.2663 176.286 19.8035 177.873 19.8035H181.441C181.532 19.8035 181.612 19.7402 181.629 19.654L181.626 19.6568Z" fill="white"/>
</svg>
