<svg width="18" height="18" viewBox="0 0 18 18" fill="none" xmlns="http://www.w3.org/2000/svg">
<path fill-rule="evenodd" clip-rule="evenodd" d="M0.666664 9.0126C0.666664 4.62268 4.175 0.666748 9.01666 0.666748C13.75 0.666748 17.3333 4.54757 17.3333 8.98756C17.3333 14.137 13.1333 17.3334 9 17.3334C7.63333 17.3334 6.11666 16.9662 4.9 16.2485C4.475 15.9897 4.11666 15.7978 3.65833 15.948L1.975 16.4488C1.55 16.5823 1.16666 16.2485 1.29166 15.7978L1.85 13.9283C1.94166 13.6696 1.925 13.3942 1.79166 13.1772C1.075 11.8585 0.666664 10.4147 0.666664 9.0126ZM7.91666 9.0126C7.91666 9.60515 8.39166 10.0809 8.98333 10.0892C9.575 10.0892 10.05 9.60515 10.05 9.02095C10.05 8.42839 9.575 7.95268 8.98333 7.95268C8.4 7.94433 7.91666 8.42839 7.91666 9.0126ZM11.7583 9.02095C11.7583 9.60516 12.2333 10.0892 12.825 10.0892C13.4167 10.0892 13.8917 9.60516 13.8917 9.02095C13.8917 8.42839 13.4167 7.95268 12.825 7.95268C12.2333 7.95268 11.7583 8.42839 11.7583 9.02095ZM5.14166 10.0892C4.55833 10.0892 4.075 9.60516 4.075 9.02095C4.075 8.42839 4.55 7.95268 5.14166 7.95268C5.73333 7.95268 6.20833 8.42839 6.20833 9.02095C6.20833 9.60516 5.73333 10.0809 5.14166 10.0892Z" fill="#642D91"/>
</svg>
