<svg width="28" height="28" viewBox="0 0 28 28" fill="none" xmlns="http://www.w3.org/2000/svg">
<path d="M6.125 5.25C4.96468 5.25 3.85188 5.71094 3.03141 6.53141C2.21094 7.35188 1.75 8.46468 1.75 9.625V10.5H26.25V9.625C26.25 8.46468 25.7891 7.35188 24.9686 6.53141C24.1481 5.71094 23.0353 5.25 21.875 5.25H6.125ZM26.25 12.25H1.75V18.375C1.75 19.5353 2.21094 20.6481 3.03141 21.4686C3.85188 22.2891 4.96468 22.75 6.125 22.75H21.875C23.0353 22.75 24.1481 22.2891 24.9686 21.4686C25.7891 20.6481 26.25 19.5353 26.25 18.375V12.25ZM18.375 17.5H21.875C22.1071 17.5 22.3296 17.5922 22.4937 17.7563C22.6578 17.9204 22.75 18.1429 22.75 18.375C22.75 18.6071 22.6578 18.8296 22.4937 18.9937C22.3296 19.1578 22.1071 19.25 21.875 19.25H18.375C18.1429 19.25 17.9204 19.1578 17.7563 18.9937C17.5922 18.8296 17.5 18.6071 17.5 18.375C17.5 18.1429 17.5922 17.9204 17.7563 17.7563C17.9204 17.5922 18.1429 17.5 18.375 17.5Z" fill="#212121"/>
</svg>
