<svg width="48" height="28" viewBox="0 0 48 28" fill="none" xmlns="http://www.w3.org/2000/svg">
<rect width="48" height="28" rx="14" fill="#642D91"/>
<path d="M21.0782 11.808L23.2148 10.256C23.4547 10.0805 23.7464 9.99034 24.0435 10C24.4058 10.009 24.7564 10.1307 25.0463 10.3482C25.3363 10.5656 25.5513 10.868 25.6615 11.2133C25.7855 11.602 25.8988 11.8647 26.0015 12.0007C26.3116 12.4147 26.714 12.7507 27.1767 12.982C27.6393 13.2133 28.1496 13.3336 28.6668 13.3333V14.6667C27.9785 14.6673 27.2985 14.5154 26.6759 14.2218C26.0533 13.9282 25.5036 13.5002 25.0662 12.9687L24.6008 15.606L25.9748 16.7587L27.4568 20.8307L26.2035 21.2867L24.8442 17.5507L22.5842 15.654C22.3986 15.5043 22.2565 15.3076 22.1728 15.0843C22.0891 14.8611 22.0668 14.6195 22.1082 14.3847L22.4475 12.4613L21.9962 12.7893L20.5782 14.7413L19.4995 13.9573L21.0668 11.8L21.0782 11.808ZM25.0002 9.66667C24.6466 9.66667 24.3074 9.52619 24.0574 9.27614C23.8073 9.02609 23.6668 8.68696 23.6668 8.33333C23.6668 7.97971 23.8073 7.64057 24.0574 7.39052C24.3074 7.14048 24.6466 7 25.0002 7C25.3538 7 25.6929 7.14048 25.943 7.39052C26.193 7.64057 26.3335 7.97971 26.3335 8.33333C26.3335 8.68696 26.193 9.02609 25.943 9.27614C25.6929 9.52619 25.3538 9.66667 25.0002 9.66667ZM23.0202 18.454L20.8775 21.0073L19.8562 20.1507L21.8395 17.7867L22.3368 16.3333L23.5308 17.3333L23.0202 18.454Z" fill="white"/>
</svg>
