<svg width="16" height="16" viewBox="0 0 16 16" fill="none" xmlns="http://www.w3.org/2000/svg">
<path d="M5.07793 5.808L7.2146 4.256C7.45446 4.08047 7.7462 3.99034 8.04327 4C8.4056 4.00904 8.75612 4.13074 9.0461 4.34819C9.33607 4.56564 9.55109 4.86803 9.66127 5.21333C9.78527 5.602 9.8986 5.86467 10.0013 6.00067C10.3114 6.41466 10.7138 6.75066 11.1764 6.98199C11.6391 7.21332 12.1493 7.33362 12.6666 7.33333V8.66667C11.9782 8.66732 11.2983 8.51537 10.6757 8.22177C10.0531 7.92816 9.50332 7.5002 9.06593 6.96867L8.6006 9.606L9.9746 10.7587L11.4566 14.8307L10.2033 15.2867L8.84393 11.5507L6.58393 9.654C6.39835 9.50431 6.25629 9.30759 6.17258 9.08434C6.08886 8.86109 6.06653 8.61948 6.10793 8.38467L6.44727 6.46133L5.99593 6.78933L4.57793 8.74133L3.49927 7.95733L5.0666 5.8L5.07793 5.808ZM8.99993 3.66667C8.64631 3.66667 8.30717 3.52619 8.05713 3.27614C7.80708 3.02609 7.6666 2.68696 7.6666 2.33333C7.6666 1.97971 7.80708 1.64057 8.05713 1.39052C8.30717 1.14048 8.64631 1 8.99993 1C9.35356 1 9.69269 1.14048 9.94274 1.39052C10.1928 1.64057 10.3333 1.97971 10.3333 2.33333C10.3333 2.68696 10.1928 3.02609 9.94274 3.27614C9.69269 3.52619 9.35356 3.66667 8.99993 3.66667ZM7.01993 12.454L4.87727 15.0073L3.85593 14.1507L5.83927 11.7867L6.3366 10.3333L7.5306 11.3333L7.01993 12.454Z" fill="#212121"/>
</svg>
