<svg width="29" height="29" viewBox="0 0 29 29" fill="none" xmlns="http://www.w3.org/2000/svg">
<g filter="url(#filter0_d_823_10881)">
<rect x="2" y="2" width="25" height="25" rx="12.5" fill="white"/>
<path d="M18.5001 15.5822H15.5834V18.4989C15.5834 18.6536 15.522 18.8019 15.4126 18.9113C15.3032 19.0207 15.1548 19.0822 15.0001 19.0822C14.8454 19.0822 14.697 19.0207 14.5876 18.9113C14.4782 18.8019 14.4167 18.6536 14.4167 18.4989V15.5822H11.5001C11.3454 15.5822 11.197 15.5207 11.0876 15.4113C10.9782 15.3019 10.9167 15.1536 10.9167 14.9989C10.9167 14.8442 10.9782 14.6958 11.0876 14.5864C11.197 14.477 11.3454 14.4155 11.5001 14.4155H14.4167V11.4989C14.4167 11.3442 14.4782 11.1958 14.5876 11.0864C14.697 10.977 14.8454 10.9155 15.0001 10.9155C15.1548 10.9155 15.3032 10.977 15.4126 11.0864C15.522 11.1958 15.5834 11.3442 15.5834 11.4989V14.4155H18.5001C18.6548 14.4155 18.8032 14.477 18.9126 14.5864C19.022 14.6958 19.0834 14.8442 19.0834 14.9989C19.0834 15.1536 19.022 15.3019 18.9126 15.4113C18.8032 15.5207 18.6548 15.5822 18.5001 15.5822Z" fill="#212121"/>
</g>
<defs>
<filter id="filter0_d_823_10881" x="0" y="0" width="29" height="29" filterUnits="userSpaceOnUse" color-interpolation-filters="sRGB">
<feFlood flood-opacity="0" result="BackgroundImageFix"/>
<feColorMatrix in="SourceAlpha" type="matrix" values="0 0 0 0 0 0 0 0 0 0 0 0 0 0 0 0 0 0 127 0" result="hardAlpha"/>
<feOffset/>
<feGaussianBlur stdDeviation="1"/>
<feComposite in2="hardAlpha" operator="out"/>
<feColorMatrix type="matrix" values="0 0 0 0 0 0 0 0 0 0 0 0 0 0 0 0 0 0 0.25 0"/>
<feBlend mode="normal" in2="BackgroundImageFix" result="effect1_dropShadow_823_10881"/>
<feBlend mode="normal" in="SourceGraphic" in2="effect1_dropShadow_823_10881" result="shape"/>
</filter>
</defs>
</svg>
