<svg width="50" height="50" viewBox="0 0 50 50" fill="none" xmlns="http://www.w3.org/2000/svg">
<rect width="50" height="50" rx="25" fill="#584CF4" fill-opacity="0.08"/>
<path fill-rule="evenodd" clip-rule="evenodd" d="M29.4109 15.7686L29.4119 16.5182C32.1665 16.7341 33.9862 18.6112 33.9891 21.4898L34 29.9155C34.0039 33.054 32.0322 34.985 28.8718 34.99L21.1519 35C18.0112 35.004 16.0148 33.027 16.0109 29.8795L16 21.5527C15.9961 18.6552 17.7515 16.7831 20.5062 16.5302L20.5052 15.7806C20.5042 15.3408 20.83 15.01 21.2644 15.01C21.6989 15.009 22.0247 15.3388 22.0257 15.7786L22.0267 16.4783L27.8914 16.4703L27.8904 15.7706C27.8894 15.3308 28.2152 15.001 28.6497 15C29.0742 14.999 29.4099 15.3288 29.4109 15.7686ZM17.5215 21.8616L32.4696 21.8416V21.4918C32.4272 19.3428 31.349 18.2154 29.4138 18.0475L29.4148 18.8171C29.4148 19.2469 29.0801 19.5877 28.6556 19.5877C28.2212 19.5887 27.8943 19.2489 27.8943 18.8191L27.8934 18.0095L22.0286 18.0175L22.0296 18.8261C22.0296 19.2569 21.7048 19.5967 21.2704 19.5967C20.8359 19.5977 20.5091 19.2589 20.5091 18.8281L20.5081 18.0585C18.5829 18.2514 17.5175 19.3828 17.5205 21.5507L17.5215 21.8616ZM28.2399 26.4043V26.4153C28.2498 26.8751 28.625 27.2239 29.0801 27.2139C29.5244 27.2029 29.8789 26.8221 29.869 26.3623C29.8483 25.9225 29.4918 25.5637 29.0485 25.5647C28.5944 25.5747 28.2389 25.9445 28.2399 26.4043ZM29.0554 30.892C28.6013 30.882 28.235 30.5032 28.234 30.0435C28.2241 29.5837 28.5884 29.2029 29.0426 29.1919H29.0525C29.5165 29.1919 29.8927 29.5707 29.8927 30.0405C29.8937 30.5102 29.5185 30.891 29.0554 30.892ZM24.1721 26.4203C24.1919 26.8801 24.568 27.2389 25.0222 27.2189C25.4665 27.1979 25.821 26.8181 25.8012 26.3583C25.7903 25.9085 25.425 25.5587 24.9807 25.5597C24.5266 25.5797 24.1711 25.9605 24.1721 26.4203ZM25.0262 30.8471C24.572 30.8671 24.1968 30.5082 24.1761 30.0485C24.1761 29.5887 24.5305 29.2089 24.9847 29.1879C25.429 29.1869 25.7953 29.5367 25.8052 29.9855C25.8259 30.4463 25.4705 30.8261 25.0262 30.8471ZM20.1043 26.4553C20.1241 26.915 20.5002 27.2749 20.9544 27.2539C21.3987 27.2339 21.7532 26.8531 21.7324 26.3933C21.7226 25.9435 21.3572 25.5937 20.912 25.5947C20.4578 25.6147 20.1033 25.9955 20.1043 26.4553ZM20.9584 30.8521C20.5042 30.8731 20.129 30.5132 20.1083 30.0535C20.1073 29.5937 20.4627 29.2129 20.9169 29.1929C21.3612 29.1919 21.7275 29.5417 21.7374 29.9915C21.7581 30.4513 21.4037 30.8321 20.9584 30.8521Z" fill="url(#paint0_linear_705_17488)"/>
<defs>
<linearGradient id="paint0_linear_705_17488" x1="34" y1="35" x2="12.2613" y2="29.3274" gradientUnits="userSpaceOnUse">
<stop stop-color="#683394"/>
<stop offset="1" stop-color="#854AB6"/>
</linearGradient>
</defs>
</svg>
