<svg width="21" height="20" viewBox="0 0 21 20" fill="none" xmlns="http://www.w3.org/2000/svg">
<path fill-rule="evenodd" clip-rule="evenodd" d="M0.20002 8.66993C0.20002 3.88166 4.04036 0 8.77766 0C11.0526 0 13.2343 0.913436 14.843 2.53936C16.4516 4.16529 17.3553 6.37052 17.3553 8.66993C17.3553 13.4582 13.515 17.3399 8.77766 17.3399C4.04036 17.3399 0.20002 13.4582 0.20002 8.66993ZM17.2134 15.6543L19.768 17.7164H19.8124C20.3292 18.2388 20.3292 19.0858 19.8124 19.6082C19.2955 20.1306 18.4576 20.1306 17.9407 19.6082L15.8207 17.1785C15.6203 16.9766 15.5077 16.7024 15.5077 16.4164C15.5077 16.1304 15.6203 15.8562 15.8207 15.6543C16.2073 15.2704 16.8268 15.2704 17.2134 15.6543Z" fill="#642D91"/>
</svg>
