<svg width="50" height="50" viewBox="0 0 50 50" fill="none" xmlns="http://www.w3.org/2000/svg">
<rect width="50" height="50" rx="25" fill="#584CF4" fill-opacity="0.08"/>
<path d="M32 28C32.55 28 33 28.45 33 29C33 29.55 32.55 30 32 30C31.45 30 31 29.55 31 29C31 28.45 31.45 28 32 28ZM32 26C30.34 26 29 27.34 29 29C29 30.66 30.34 32 32 32C33.66 32 35 30.66 35 29C35 27.34 33.66 26 32 26ZM23 19H18V21H23V19ZM30 18H27V20H30V22.65L26.5 27H23V22H19C16.79 22 15 23.79 15 26V29H17C17 30.66 18.34 32 20 32C21.66 32 23 30.66 23 29H27.5L32 23.35V20C32 19.4696 31.7893 18.9609 31.4142 18.5858C31.0391 18.2107 30.5304 18 30 18ZM20 30C19.45 30 19 29.55 19 29H21C21 29.55 20.55 30 20 30Z" fill="url(#paint0_linear_735_17307)"/>
<defs>
<linearGradient id="paint0_linear_735_17307" x1="35" y1="32" x2="12.9791" y2="22.8789" gradientUnits="userSpaceOnUse">
<stop stop-color="#683394"/>
<stop offset="1" stop-color="#854AB6"/>
</linearGradient>
</defs>
</svg>
