<svg width="213" height="274" viewBox="0 0 213 274" fill="none" xmlns="http://www.w3.org/2000/svg">
<path d="M71.1558 174.005C71.1558 181.519 72.1576 187.78 72.6584 194.291C73.4098 202.305 75.4133 210.069 77.4168 217.833C78.4186 221.84 79.9212 225.596 81.4239 229.353C83.177 233.861 84.9301 238.369 87.184 242.877C89.438 247.886 92.1929 252.644 94.9477 257.402C97.2017 260.908 99.4556 264.665 102.21 267.921C103.212 269.173 103.713 270.425 102.962 271.928C102.461 272.93 101.459 273.681 100.207 273.431C98.7043 273.18 97.7026 271.928 96.9512 270.676C94.1964 266.669 91.1911 262.411 88.6867 258.154C85.9318 253.646 83.4274 248.887 81.4239 244.129C79.6708 240.122 77.9177 236.115 76.1646 231.857C73.6602 225.596 71.9071 219.085 70.154 212.573C66.6478 198.298 65.1452 183.773 65.3956 168.997C65.6461 161.233 67.9001 154.221 71.9071 147.459C75.9142 140.697 81.4239 135.187 88.1858 131.681C96.7008 127.173 105.717 125.42 115.484 128.175C119.992 129.427 124.249 131.18 128.006 133.684C131.512 135.938 134.517 138.944 137.272 142.199C140.778 146.707 143.533 151.466 145.286 156.975C146.539 160.482 147.29 164.238 147.54 167.995C147.791 172.252 147.791 176.51 148.041 180.767C148.041 182.52 148.542 184.023 148.793 185.526C150.045 191.286 151.547 196.796 154.052 202.305C158.309 211.572 164.32 219.335 171.833 226.097C173.837 227.85 175.84 229.102 178.094 230.605C179.597 231.607 180.098 233.109 179.346 234.362C178.345 235.864 176.842 236.365 175.089 235.363C170.581 232.609 166.574 229.102 162.817 225.095C159.061 221.088 155.554 216.831 152.8 212.072C149.544 206.563 147.039 200.803 145.286 194.792C142.782 186.027 141.78 177.011 141.78 167.995C141.78 163.487 140.278 159.229 138.524 155.222C136.771 150.714 134.017 146.707 130.761 143.452C125.001 137.942 118.74 134.185 110.475 133.183C104.464 132.683 98.4539 133.183 92.9442 135.688C88.4362 137.691 84.6796 140.697 81.4239 144.203C77.4168 148.46 74.4115 153.469 72.9089 158.979C71.9071 164.238 70.6549 169.497 71.1558 174.005Z" fill="#642D91"/>
<path d="M39.8494 174.256C40.0999 167.244 40.3503 159.48 42.3538 152.217C44.1069 145.956 46.3609 139.695 49.3662 134.185C54.375 125.42 60.8865 117.406 69.4015 111.395C73.659 108.39 77.9165 105.635 82.9253 103.632C94.696 98.8731 106.717 97.1201 119.49 100.125C124.749 101.378 129.758 102.88 134.516 105.134C138.774 107.138 142.781 109.893 146.537 112.898C149.292 115.152 152.047 117.656 154.301 120.161C156.805 122.915 159.31 126.171 161.564 129.427C163.567 132.683 165.571 135.938 166.823 139.445C169.327 145.205 171.331 151.215 172.583 157.476C174.086 164.99 173.835 172.753 174.837 180.267C175.338 183.522 176.59 186.528 177.843 189.533C179.846 194.041 182.35 197.797 185.857 201.304C187.86 203.307 190.114 204.81 192.368 206.563C193.37 207.314 193.62 208.316 193.37 209.318C193.119 210.57 191.867 211.071 190.865 211.321C189.864 211.321 189.112 211.071 188.361 210.57C181.85 206.062 176.841 200.302 173.585 193.039C170.83 187.028 168.827 180.517 168.827 173.755C168.827 167.494 168.326 161.233 166.823 155.222C165.07 147.96 162.315 140.947 158.308 134.436C154.551 128.175 150.044 122.916 144.784 118.157C139.275 113.399 133.264 109.893 126.502 107.639C118.738 104.884 110.724 104.132 102.71 104.633C96.1987 105.134 89.9376 106.887 84.1775 109.392C79.6696 111.395 75.6625 114.15 71.6554 117.155C68.9006 119.409 66.1457 121.914 63.6413 124.669C59.8847 128.926 56.3785 133.684 54.1246 138.944C53.1228 140.947 52.3715 142.951 51.3697 144.954C49.8671 148.46 48.6149 151.967 48.114 155.473C47.1122 161.483 46.1105 167.244 46.3609 173.505C46.6113 182.27 47.3627 191.035 48.3644 199.801C48.8653 204.309 49.8671 209.067 50.8688 213.575C51.3697 216.33 49.8671 217.833 47.1122 217.332C46.1105 217.081 45.86 216.58 45.6096 215.829C43.6061 209.819 43.3556 203.558 42.1034 197.547C40.0999 190.034 40.3503 182.27 39.8494 174.256Z" fill="#642D91"/>
<path d="M108.22 70.5732C112.477 70.5732 117.987 71.575 123.747 72.5768C129.257 73.5785 134.767 75.3316 139.775 77.3351C143.532 78.8378 147.289 80.8413 151.045 83.0953C156.555 86.351 161.564 90.1076 166.322 94.6156C170.079 98.1218 173.585 101.878 176.841 105.885C180.597 110.644 184.104 115.653 186.858 121.162C189.864 126.672 192.118 132.432 194.121 138.443C195.624 143.201 196.876 147.709 197.627 152.467C198.629 158.729 199.38 165.24 199.38 171.751C199.38 175.508 200.633 179.014 203.638 181.519C204.89 182.52 205.141 184.023 204.139 185.275C203.137 186.277 201.885 187.529 200.132 186.027C196.125 183.021 193.871 179.014 193.871 174.005C193.871 167.244 192.869 160.732 191.867 153.97C190.865 147.709 189.112 141.699 187.109 135.938C185.105 130.429 182.35 125.169 179.345 119.91C176.34 115.152 173.335 110.644 169.828 106.637C165.07 101.127 159.811 96.3687 153.8 92.1112C149.543 89.1059 145.285 86.6015 140.777 84.3475C134.767 81.3422 128.255 79.3387 121.493 78.0865C114.23 76.8343 107.218 76.8343 99.7049 77.0847C92.1917 77.3351 84.9288 79.3387 77.9165 81.8431C71.1546 84.3475 65.144 87.8537 59.3839 91.8607C53.8742 96.1182 48.3644 101.127 43.6061 106.637C38.0964 112.898 33.8389 119.91 30.0822 127.173C27.3274 132.683 25.3239 138.693 23.5708 144.453C23.0699 145.956 23.0699 147.709 22.569 149.212C22.0681 150.714 21.0664 151.967 19.3133 151.716C17.8106 151.466 16.5584 150.464 16.8089 148.46C16.8089 147.459 17.0593 146.457 17.3097 145.455C19.0628 139.194 20.8159 133.184 23.5708 127.173C25.8247 122.164 28.5796 117.406 31.5849 112.898C35.8424 106.136 40.8512 100.376 46.6113 94.866C52.1211 89.6068 58.1316 85.0988 64.8936 81.3422C69.6519 78.5873 74.4103 76.3334 79.6696 74.8307C88.435 72.5768 97.4509 70.5732 108.22 70.5732Z" fill="#642D91"/>
<path d="M122.746 176.009C122.495 181.268 123.747 186.527 124.499 191.787C125.5 197.797 127.254 203.808 129.508 209.568C130.76 213.325 132.763 217.081 134.516 220.587C137.271 225.847 140.527 231.106 144.534 235.614C147.038 238.619 149.292 241.374 152.298 243.878C154.802 246.132 157.307 248.637 160.061 250.64C161.314 251.642 162.315 252.894 160.813 254.397C159.31 256.15 158.308 256.15 156.555 254.898C150.294 250.139 144.784 244.63 140.026 238.619C136.269 233.861 132.763 228.852 129.758 223.342C126.502 217.081 123.747 210.57 121.744 203.557C118.739 193.54 117.486 183.021 116.986 172.503C116.986 169.748 116.485 166.993 114.732 164.739C111.726 160.982 107.469 159.981 103.462 161.734C99.2042 163.737 97.2006 167.494 97.2006 172.002C96.9502 179.265 98.2024 186.527 99.2042 193.79C100.206 200.803 102.209 207.314 103.963 214.076C104.714 216.831 106.217 219.586 107.218 222.34C109.222 227.85 111.977 233.109 114.982 238.369C117.236 242.376 119.74 246.132 122.495 249.639C126.502 255.148 131.01 260.157 135.769 264.915C137.021 266.168 136.52 267.42 135.518 268.422C134.516 269.674 133.014 269.924 131.762 268.923C128.756 266.168 126.001 263.162 123.497 260.157C120.742 256.901 117.987 253.395 115.483 249.889C113.73 247.385 111.977 244.88 110.474 242.125C108.47 238.369 106.467 234.612 104.714 230.855C101.709 224.344 99.2042 217.833 97.2006 210.82C95.698 205.06 93.9449 199.55 93.444 193.79C92.4423 185.526 90.9396 177.512 92.1918 168.997C92.9432 164.238 95.4476 160.482 99.4546 157.727C104.463 153.97 112.478 154.721 116.986 158.728C121.493 163.236 123.247 169.247 122.746 176.009Z" fill="#642D91"/>
<path d="M27.0757 175.007C27.0757 165.741 27.5766 157.977 29.5801 150.214C31.0827 144.203 33.0863 138.443 35.5907 132.683C38.0951 126.923 41.3508 121.663 45.1074 116.655C48.8641 111.646 53.372 106.887 58.3808 102.88C63.1392 99.1237 67.8976 95.3671 73.4073 92.8627C80.9205 89.3565 88.4338 86.6017 96.9488 85.5999C102.959 85.099 108.97 84.5981 114.73 85.3494C115.982 85.5999 117.735 84.8486 118.487 86.8521C119.238 89.3565 117.986 91.1096 115.481 90.8592C111.975 90.3583 108.219 90.1078 104.712 90.3583C98.4514 90.8591 92.1904 91.8609 85.9294 93.8644C80.4196 95.6175 75.4108 97.8715 70.6524 100.877C66.1445 103.632 61.887 107.138 57.8799 110.894C55.1251 113.649 52.3702 116.655 50.1163 119.91C46.3596 124.919 42.8535 130.178 40.5995 136.189C39.8482 138.193 39.0969 139.946 38.3455 141.949C36.8429 145.956 35.5907 150.214 34.8394 154.221C33.0863 163.237 32.5854 172.503 33.3367 181.769C33.5872 187.029 34.088 192.037 34.5889 197.297C34.8394 200.803 35.8411 204.059 36.0916 207.565C36.8429 213.575 38.3455 219.586 39.8482 225.596C40.8499 229.604 42.1022 233.611 43.1039 237.618C43.6048 239.12 43.1039 240.623 41.3508 241.124C39.3473 241.625 38.596 240.373 38.0951 239.12C36.8429 235.364 35.5907 231.607 34.5889 227.6C34.3385 226.598 34.3385 225.596 34.088 224.595C30.5818 211.321 28.5783 198.048 28.0775 184.524C27.3261 181.018 27.0757 177.512 27.0757 175.007Z" fill="#642D91"/>
<path d="M189.117 61.8078C188.867 62.5591 188.616 63.5609 187.364 64.0617C185.861 64.5626 184.609 64.3122 183.357 63.06C180.101 60.0547 176.595 57.5503 173.089 55.0459C169.332 52.291 165.325 50.037 161.318 47.7831C156.81 45.2787 152.052 43.2751 147.293 41.522C141.032 39.0176 134.771 37.2645 128.26 36.0123C115.237 33.7584 101.963 33.007 88.9405 35.5114C81.6777 36.7637 74.6654 38.5167 67.653 41.0212C61.392 43.0247 55.6319 45.7795 49.8717 49.0353C45.8647 51.2892 41.8576 54.0441 37.8505 56.799C33.8435 59.8042 29.586 63.06 26.0798 66.3157C22.0728 70.0723 18.0657 74.0794 14.5595 78.5873C13.0569 80.8413 11.0533 80.8413 9.5507 79.0882C8.54894 78.5873 8.54894 77.3351 9.30026 76.3334C11.8047 72.8272 14.81 69.8219 17.8152 66.8166C21.5719 63.06 25.3285 59.5538 29.586 56.2981C33.8435 52.7919 38.3514 49.7866 43.1098 46.7813C46.3656 44.7778 49.3708 43.0247 52.877 41.522C59.138 38.5167 65.6495 35.7619 72.4114 33.7584C77.6707 32.2557 83.1804 30.7531 88.6901 30.0017C97.2051 28.7495 105.971 28.2487 114.736 29C121.999 29.5009 129.512 30.5026 136.524 32.2557C142.284 33.7584 148.045 35.7619 153.554 38.0159C159.314 40.5203 164.824 43.2751 170.334 46.5309C176.344 50.037 181.604 54.0441 186.863 58.3016C187.865 59.0529 189.367 59.8042 189.117 61.8078Z" fill="#642D91"/>
<path d="M105.966 42.5236C113.229 42.2732 119.74 43.5254 126.001 44.2767C132.262 45.2785 138.273 47.0316 144.033 49.0351C148.541 50.5378 152.798 52.5413 156.806 54.7953C161.063 57.0492 165.321 59.3032 169.077 62.0581C172.333 64.312 175.589 66.8164 178.844 69.5713C183.102 73.3279 187.109 77.0845 190.866 81.0916C194.372 84.8482 197.377 88.8553 200.382 93.1128C203.137 97.1198 205.642 101.127 207.896 105.134C209.649 108.139 211.151 111.395 212.654 114.4C213.405 115.903 212.904 117.155 211.402 117.906C209.649 118.658 207.896 118.407 207.144 116.654C205.892 113.649 204.139 110.644 202.636 107.638C200.132 103.13 197.377 98.8729 194.372 94.6154C188.612 86.3509 181.599 79.0881 174.086 72.827C168.576 68.3191 162.566 64.312 156.305 60.8059C150.795 57.8006 145.035 55.0457 139.024 53.2926C126.502 49.2856 113.73 47.7829 100.707 48.2838C95.197 48.5342 89.6873 49.2856 84.428 50.5378C78.6679 51.79 73.4086 53.7935 67.8989 55.5466C66.1458 56.0475 64.6432 56.0475 63.8919 54.2944C63.1405 52.5413 63.8919 51.5395 65.645 50.5378C71.4051 47.5325 77.9166 45.7794 84.1776 44.7776C91.9413 43.5254 99.2041 41.7723 105.966 42.5236Z" fill="#642D91"/>
<path d="M106.718 56.7988C114.481 57.2997 122.245 57.5501 130.009 59.5537C136.27 61.3068 142.03 63.3103 147.79 65.8147C154.301 68.82 160.312 72.3262 166.072 76.8341C167.074 77.5854 167.825 78.0863 168.577 79.0881C169.578 80.5907 168.577 81.8429 167.825 82.5942C166.824 83.596 165.571 83.3456 164.57 82.5942C159.06 78.0863 152.799 74.3297 146.287 71.074C139.776 67.8182 133.014 65.5643 125.751 64.3121C114.231 62.0581 102.961 61.5572 91.1903 63.8112C83.9275 65.3138 76.9151 67.3173 70.1532 70.0722C62.8904 73.0775 56.379 77.0846 50.1179 81.8429C46.3613 84.5978 42.8551 87.8535 39.5994 91.3597C38.3472 92.6119 36.8446 92.6119 35.5924 92.111C34.5906 91.6101 34.3401 90.3579 34.3401 89.3562C34.3401 88.6048 34.841 88.3544 35.3419 87.8535C39.5994 83.3456 44.3578 79.0881 49.6171 75.5819C54.8763 72.0757 60.1356 68.82 65.8957 66.0651C70.6541 63.8112 75.4125 62.0581 80.4213 60.5554C86.1815 58.8024 91.9416 57.5501 98.2026 57.2997C100.707 57.0493 103.712 56.7988 106.718 56.7988Z" fill="#642D91"/>
<path d="M52.6272 172.503C52.8776 166.993 53.1281 160.231 55.382 153.719C56.1334 151.215 57.3856 148.711 58.1369 146.206C58.8882 143.702 60.6413 142.951 62.6448 143.952C64.3979 144.954 64.6484 145.956 63.897 147.959C60.6413 153.97 59.3891 160.231 58.6378 166.742C57.636 176.009 58.8882 185.025 59.89 194.291C60.6413 202.055 62.3944 209.818 64.1475 217.332C65.3997 222.09 66.9023 226.598 68.405 231.106C70.4085 237.367 72.9129 243.127 75.6678 248.887C77.9218 253.896 80.4262 258.654 83.4315 263.162C84.4332 264.665 86.1863 266.418 84.4332 268.422C83.4315 269.674 80.6766 269.674 79.9253 268.422C76.1687 261.91 72.412 255.148 69.1563 248.386C66.151 241.624 63.3962 234.612 61.1422 227.349C59.1387 220.587 57.3856 213.825 55.8829 207.063C53.629 196.044 52.8776 185.025 52.6272 172.503Z" fill="#642D91"/>
<path d="M136.271 91.1094C137.524 91.6103 139.026 92.1111 140.278 92.612C147.04 96.1182 153.301 100.376 158.811 105.635C163.319 109.892 167.326 114.4 170.832 119.66C172.836 122.665 175.09 125.67 176.592 129.176C179.598 135.187 181.852 141.198 183.605 147.459C185.107 153.219 185.859 158.979 186.61 164.739C187.111 168.245 186.86 171.751 187.111 175.258C187.612 181.519 190.367 186.527 194.624 191.035C195.375 191.787 196.377 192.288 196.878 193.289C197.88 194.792 197.129 196.044 196.127 197.046C194.875 198.048 193.622 197.797 192.37 196.796C188.864 193.79 185.859 190.034 184.106 185.526C182.603 182.019 181.1 178.263 181.351 174.256C181.601 167.494 180.599 160.982 179.347 154.471C177.594 145.956 174.839 138.192 170.832 130.679C167.827 125.169 164.321 120.161 160.314 115.402C155.555 109.892 150.046 105.385 144.035 101.377C141.28 99.6244 138.275 97.8713 135.27 96.6191C133.266 95.8677 133.767 94.6156 133.767 93.1129C133.517 91.6103 135.019 91.3598 136.271 91.1094Z" fill="#642D91"/>
<path d="M106.715 112.897C112.225 113.649 117.735 113.899 122.994 115.652C132.26 118.658 139.773 124.418 146.285 131.18C149.791 134.936 152.796 139.695 155.05 144.453C157.805 150.464 159.809 156.725 160.56 163.487C160.81 165.24 159.809 166.742 158.306 167.243C156.803 167.494 155.551 166.492 155.05 164.739C153.798 157.726 152.045 150.965 148.539 144.703C145.033 138.693 140.775 133.183 135.015 128.926C130.757 125.67 126.25 123.166 121.491 121.412C113.477 118.658 105.463 117.906 97.1984 120.16C91.4382 121.162 86.1789 123.666 81.4206 126.672C79.1666 128.174 77.1631 129.927 75.1595 131.681C73.6569 132.933 72.1542 132.432 71.1525 131.18C70.4011 129.927 70.1507 128.425 71.4029 127.173C73.6569 125.42 75.6604 123.416 78.1648 121.913C82.4223 119.159 86.6798 117.155 91.4382 115.402C96.447 113.649 101.706 113.649 106.715 112.897Z" fill="#642D91"/>
<path d="M127.502 161.233C127.753 159.48 128.755 158.728 130.257 158.478C131.76 158.227 133.263 159.229 133.513 160.732C135.016 165.741 136.017 170.499 135.767 175.758C135.517 181.268 136.769 186.277 137.77 191.786C139.273 199.049 141.778 205.561 145.033 212.072C147.788 217.331 151.044 222.34 154.8 227.099C158.307 231.356 162.564 235.363 166.571 238.869C167.823 239.871 169.076 240.622 170.328 241.624C171.58 242.626 172.081 243.878 171.33 245.13C170.578 246.383 169.326 247.134 167.573 246.383C164.568 244.88 162.314 242.626 159.809 240.622C157.806 238.869 156.303 237.116 154.3 235.363C151.294 232.608 148.79 229.353 146.536 225.846C143.781 221.839 141.277 217.832 139.273 213.324C137.019 208.566 135.016 203.557 133.513 198.548C132.01 193.54 131.259 188.28 130.508 183.271C130.007 180.266 129.756 177.01 129.756 174.005C129.756 169.998 129.756 165.991 128.003 162.234C127.502 161.734 127.502 161.483 127.502 161.233Z" fill="#642D91"/>
<path d="M103.964 14.4745C105.968 14.4745 107.721 14.4745 109.474 14.4745C110.726 14.4745 111.728 14.9754 111.979 16.478C112.229 17.9807 111.978 19.4833 110.225 19.9842C109.725 20.2346 109.224 20.2346 108.723 20.2346C103.464 19.9842 97.9538 20.4851 92.6945 20.7355C88.9379 20.986 85.4317 21.9877 81.9256 22.4886C74.4123 23.7408 66.8991 26.2452 59.8867 29.0001C55.3788 30.7532 50.8709 33.0071 46.6134 35.2611C40.6028 38.2664 35.0931 42.023 29.5834 45.7796C28.0807 46.7814 26.8285 46.2805 25.8268 44.7779C24.825 43.5257 25.0754 42.023 26.3276 41.0212C28.5816 39.2682 31.086 37.5151 33.5904 36.0124C38.0984 33.0071 43.1072 30.2523 48.116 27.7479C54.1266 24.7426 60.3876 22.2382 66.8991 20.2346C71.407 18.732 75.915 17.4798 80.6734 16.7285C88.437 15.7267 96.2007 14.2241 103.964 14.4745Z" fill="#642D91"/>
<path d="M78.4183 176.259C78.1678 168.495 79.1696 161.233 83.4271 154.471C87.1837 148.46 92.443 144.203 99.2049 142.199C103.212 140.947 107.469 140.696 111.476 141.698C113.73 142.199 115.984 142.95 118.238 143.952C119.491 144.704 119.741 145.705 119.741 146.957C119.491 148.46 118.489 148.21 117.487 148.46C115.984 148.711 114.732 148.46 113.23 147.959C105.466 144.704 95.6987 148.46 90.4394 154.471C85.1802 160.732 83.4271 168.245 83.6775 176.51C83.928 183.522 85.4306 190.534 85.6811 197.797C85.6811 199.3 85.6811 200.301 83.6775 200.552C81.9244 200.802 80.6722 200.301 80.1714 198.548C79.6705 196.545 79.1696 194.541 79.1696 192.538C79.42 186.778 78.4183 181.518 78.4183 176.259Z" fill="#642D91"/>
<path d="M176.841 92.6119C176.841 91.6101 176.841 90.6084 177.843 90.1075C179.095 89.857 180.597 89.3562 181.599 90.6084C185.356 94.8659 189.112 99.3738 192.118 104.132C193.871 107.137 195.874 109.892 197.627 112.898C201.384 119.66 204.389 126.922 206.894 134.436C208.897 140.446 209.899 146.958 211.402 153.219C211.903 155.723 211.151 157.226 208.897 157.727C207.395 157.977 205.642 156.474 205.391 154.471C204.64 147.208 202.636 140.196 200.382 133.434C198.88 128.926 196.876 124.668 194.873 120.411C192.118 114.651 188.862 109.141 185.105 103.882C182.851 100.626 180.347 97.6207 177.592 94.8659C177.091 94.1145 176.59 93.6137 176.841 92.6119Z" fill="#642D91"/>
<path d="M49.3676 64.5627C49.3676 66.5662 47.3641 67.3175 45.8614 68.3193C41.6039 71.575 37.3464 74.8308 33.5898 78.5874C31.0854 81.0918 28.3305 83.5962 26.0765 86.1006C23.5721 88.8555 21.3182 92.1112 19.0642 95.1165C16.3093 98.8731 13.5545 102.88 11.551 106.887C9.79787 110.143 8.04478 113.649 6.2917 116.905C5.54037 118.408 4.03773 119.159 2.53508 118.408C1.03243 117.656 0.531554 116.404 1.03244 114.901C2.28464 112.146 3.53684 109.392 5.03949 106.637C7.29346 102.129 10.0483 97.8713 12.8032 93.8643C15.3076 90.3581 18.0624 86.8519 20.8173 83.5962C23.0713 80.8413 25.5757 78.0865 28.0801 75.5821C31.5863 72.3264 35.0924 69.0706 38.849 66.3158C41.103 64.8131 42.8561 63.06 45.3605 61.8078C47.364 60.5556 49.3676 61.8078 49.3676 64.5627Z" fill="#642D91"/>
<path d="M85.6829 218.584C85.9334 217.081 86.1838 215.829 87.9369 215.328C89.4395 215.078 90.1909 215.829 90.6917 216.831C92.4448 219.836 93.1962 223.593 94.4484 226.849C95.4501 229.353 96.7023 231.857 97.7041 234.362C99.4572 238.118 101.21 241.625 103.214 245.131C104.967 248.136 106.97 251.392 108.974 254.397C111.228 257.903 113.983 260.909 116.237 264.164C116.988 265.166 117.99 266.168 118.992 267.17C120.745 269.173 120.995 270.175 119.492 271.427C117.739 272.93 115.986 272.679 114.484 270.676C111.729 267.17 108.724 263.914 106.219 260.157C103.715 256.401 100.96 252.644 98.9563 248.387C97.2032 245.131 95.4501 241.875 93.697 238.619C91.6935 234.362 89.69 230.104 88.1873 225.596C87.436 223.342 86.1838 221.339 85.9334 218.834C85.6829 219.085 85.6829 218.834 85.6829 218.584Z" fill="#642D91"/>
<path d="M2.03201 157.476C3.03378 152.718 3.7851 147.96 4.78686 143.201C6.28951 136.439 8.54348 129.928 11.2983 123.667C14.0532 116.905 17.5594 110.644 21.5664 104.383C22.5682 102.88 24.5717 102.379 26.0744 103.381C27.577 104.383 27.3266 105.885 26.3248 107.639C23.8204 111.896 21.0655 116.404 18.8116 120.912C17.5594 123.416 16.3071 126.171 15.3054 128.676C13.3019 134.185 11.0479 139.695 10.2966 145.455C10.0461 146.457 9.79569 147.459 9.54525 148.46C9.04436 151.466 8.0426 154.471 8.29304 157.476C8.29304 159.229 6.53995 160.982 5.0373 160.732C3.28421 160.982 2.03201 159.229 2.03201 157.476Z" fill="#642D91"/>
<path d="M109.725 176.009C109.725 181.518 110.727 187.028 111.478 192.788C112.48 199.3 114.233 205.811 116.487 212.072C117.99 216.33 119.492 220.587 121.997 224.594C123.249 226.848 123.249 228.1 121.245 229.353C119.743 230.354 117.99 229.603 116.988 227.349C113.231 219.585 110.226 211.822 108.222 203.557C105.718 193.54 104.466 183.522 104.466 173.254C104.466 172.002 104.466 170.749 105.718 169.998C107.721 168.746 109.975 169.998 109.975 172.252C109.975 173.003 109.975 173.504 109.975 174.256C109.725 174.757 109.725 175.508 109.725 176.009Z" fill="#642D91"/>
<path d="M106.717 0.449707C116.484 0.950589 126.251 1.20103 135.768 3.455C139.274 4.20633 142.78 5.45853 146.286 5.95941C148.039 6.20986 149.041 7.96294 148.791 9.71603C148.29 11.4691 146.787 12.4709 144.784 11.7196C137.27 9.46559 129.507 8.21338 121.994 7.21162C114.731 6.20986 107.468 6.20986 100.205 6.4603C97.7007 6.4603 94.9459 6.96118 92.4415 7.21162C91.6901 7.21162 91.1892 7.21162 90.4379 7.21162C88.6848 7.21162 87.1822 5.95942 87.1822 4.45677C87.1822 2.70368 88.4344 1.70191 90.1875 1.70191C95.9476 0.950589 101.207 0.449707 106.717 0.449707Z" fill="#642D91"/>
<path d="M161.564 189.533C162.566 189.282 163.317 189.783 164.069 191.035C166.072 195.543 167.825 200.051 170.58 204.058C173.586 208.316 176.841 212.323 181.349 215.579C182.852 216.831 184.605 217.833 186.108 219.085C187.861 220.337 188.111 221.84 187.109 223.092C185.857 224.595 184.354 224.344 182.852 223.593C178.093 220.838 174.086 217.081 170.33 213.074C167.324 209.568 164.57 205.811 162.566 201.804C161.063 199.05 159.561 196.044 158.809 193.039C158.309 191.035 159.561 189.533 161.564 189.533Z" fill="#642D91"/>
<path d="M132.015 16.7285C133.016 16.979 133.768 17.2294 134.519 17.4798C141.281 18.9825 148.043 20.986 154.554 23.4904C158.812 24.9931 162.819 26.7462 166.826 29.0001C168.579 30.0019 168.579 31.5045 168.078 33.0072C167.577 34.5098 166.075 34.2594 164.822 34.009C162.568 33.7585 160.565 32.2559 158.561 31.2541C153.803 29.0001 148.794 27.247 143.785 25.7444C140.029 24.7426 136.523 22.9895 132.516 22.9895C131.013 22.9895 129.51 22.4887 129.26 20.4851C129.009 18.9825 129.26 17.4798 131.013 16.979C131.263 16.979 131.764 16.7285 132.015 16.7285Z" fill="#642D91"/>
<path d="M14.306 181.268C14.306 178.513 14.306 175.758 14.306 172.753C14.306 170.499 15.5582 168.996 17.3113 169.247C19.0643 169.247 19.8157 170.499 19.8157 172.753C20.0661 182.771 20.8174 193.039 22.0696 203.056C22.3201 204.309 22.5705 205.811 22.5705 207.064C22.5705 208.566 21.3183 209.568 19.8157 209.568C18.313 209.568 17.0608 209.067 16.8104 207.064C16.3095 202.055 15.5582 196.795 15.0573 191.787C14.306 188.531 14.8069 184.774 14.306 181.268Z" fill="#642D91"/>
<path d="M149.042 260.658C148.541 261.159 149.042 262.411 147.789 262.912C146.537 263.413 145.285 263.663 144.033 262.411C141.278 259.906 138.523 257.402 136.019 254.898C132.262 250.891 129.006 246.884 126.001 242.626C125.5 241.875 124.999 241.123 124.498 240.122C123.747 238.619 123.997 237.367 125.5 236.615C127.003 235.614 128.255 236.115 129.257 237.367C131.26 240.122 133.514 242.876 135.518 245.631C139.024 250.139 143.281 254.397 147.789 258.153C148.541 259.155 148.541 259.906 149.042 260.658Z" fill="#642D91"/>
<path d="M64.6428 257.402C64.6428 258.654 64.1419 259.907 62.6393 260.157C61.3871 260.407 60.3853 260.157 59.634 258.905C57.1296 254.397 55.126 249.638 53.3729 244.88C52.1207 241.624 51.119 238.619 49.8668 235.363C49.1154 233.109 49.8668 230.855 51.6198 230.354C52.8721 230.104 54.8756 231.607 55.3765 233.61C56.8791 239.12 59.1331 244.379 61.3871 249.638C62.6393 252.393 64.1419 254.647 64.6428 257.402Z" fill="#642D91"/>
<path d="M53.6229 16.7286C52.1202 16.9791 51.3689 15.7269 51.1185 14.4747C50.6176 12.972 50.868 11.7198 52.3707 10.9685C54.8751 9.96672 57.3795 8.71451 60.1343 7.96319C64.3918 6.71098 68.6493 5.45878 72.9068 4.20657C74.6599 3.70569 76.9139 4.70746 77.1643 6.46055C77.4148 7.96319 76.1626 9.71628 74.159 9.96672C70.152 10.9685 66.1449 12.2207 62.1379 13.4729C59.383 14.4747 56.6282 15.7269 53.6229 16.7286Z" fill="#642D91"/>
</svg>
