<svg width="28" height="28" viewBox="0 0 28 28" fill="none" xmlns="http://www.w3.org/2000/svg">
<path fill-rule="evenodd" clip-rule="evenodd" d="M25.4184 12.2959C25.2604 12.4493 25.046 12.537 24.8204 12.537C23.9854 12.537 23.3084 13.1947 23.3084 13.9948C23.3084 14.8005 23.9775 15.4549 24.8046 15.4636C25.2705 15.468 25.6666 15.7837 25.6666 16.2364V19.0479C25.6666 21.4144 23.6921 23.3337 21.2549 23.3337H17.5766C17.1964 23.3337 16.8884 23.0344 16.8884 22.665V20.2974C16.8884 19.8371 16.516 19.4754 16.0421 19.4754C15.5795 19.4754 15.1959 19.8371 15.1959 20.2974V22.665C15.1959 23.0344 14.8879 23.3337 14.5088 23.3337H6.74492C4.31907 23.3337 2.33325 21.4155 2.33325 19.0479V16.2364C2.33325 15.7837 2.72929 15.468 3.19528 15.4636C4.02345 15.4549 4.69141 14.8005 4.69141 13.9948C4.69141 13.2166 4.03699 12.6247 3.17948 12.6247C2.95382 12.6247 2.73944 12.537 2.58148 12.3836C2.42352 12.2301 2.33325 12.0219 2.33325 11.8026V8.96372C2.33325 6.60052 4.32358 4.66699 6.7562 4.66699H14.5088C14.8879 4.66699 15.1959 4.96623 15.1959 5.33562V8.14164C15.1959 8.59105 15.5795 8.96372 16.0421 8.96372C16.516 8.96372 16.8884 8.59105 16.8884 8.14164V5.33562C16.8884 4.96623 17.1964 4.66699 17.5766 4.66699H21.2549C23.6921 4.66699 25.6666 6.58518 25.6666 8.95276V11.7149C25.6666 11.9342 25.5763 12.1424 25.4184 12.2959ZM16.0422 17.3489C16.516 17.3489 16.8884 16.9763 16.8884 16.5268V12.1424C16.8884 11.693 16.516 11.3203 16.0422 11.3203C15.5795 11.3203 15.1959 11.693 15.1959 12.1424V16.5268C15.1959 16.9763 15.5795 17.3489 16.0422 17.3489Z" fill="#212121"/>
</svg>
