<svg width="18" height="20" viewBox="0 0 18 20" fill="none" xmlns="http://www.w3.org/2000/svg">
<path d="M8.99996 19.5661C13.722 19.5661 17.55 15.7381 17.55 11.0161C17.55 6.29403 13.722 2.46606 8.99996 2.46606C4.27793 2.46606 0.449963 6.29403 0.449963 11.0161C0.449963 15.7381 4.27793 19.5661 8.99996 19.5661Z" fill="url(#paint0_linear_7907_10690)"/>
<path d="M9 18.6841C13.9706 18.6841 18 14.6546 18 9.68408C18 4.71352 13.9706 0.684082 9 0.684082C4.02944 0.684082 0 4.71352 0 9.68408C0 14.6546 4.02944 18.6841 9 18.6841Z" fill="#FAF6CC"/>
<path d="M9 18.324C13.9706 18.324 18 14.2945 18 9.32397C18 4.35341 13.9706 0.323975 9 0.323975C4.02944 0.323975 0 4.35341 0 9.32397C0 14.2945 4.02944 18.324 9 18.324Z" fill="url(#paint1_linear_7907_10690)"/>
<path d="M9.09011 17.8741C13.325 17.8741 16.7581 14.441 16.7581 10.2061C16.7581 5.97117 13.325 2.53809 9.09011 2.53809C4.85519 2.53809 1.42211 5.97117 1.42211 10.2061C1.42211 14.441 4.85519 17.8741 9.09011 17.8741Z" fill="url(#paint2_radial_7907_10690)"/>
<path d="M9.00007 2.79001C13.0501 2.79001 16.3441 5.92201 16.6321 9.88201C16.6501 9.70201 16.6501 9.50401 16.6501 9.32401C16.6501 5.09401 13.2121 1.65601 8.98207 1.65601C4.75207 1.65601 1.35007 5.09401 1.35007 9.32401C1.35007 9.50401 1.36807 9.70201 1.36807 9.88201C1.65607 5.92201 4.96807 2.79001 9.00007 2.79001Z" fill="url(#paint3_linear_7907_10690)"/>
<path d="M8.1179 4.82387C8.2799 4.48187 8.6219 4.26587 8.9999 4.26587C9.3779 4.26587 9.7199 4.48187 9.8819 4.82387L11.0879 7.25387L13.7699 7.64987C14.1479 7.70387 14.4539 7.97387 14.5799 8.33387C14.6879 8.69387 14.5979 9.08987 14.3279 9.35987L12.3839 11.2499L12.8339 13.9139C12.9059 14.2919 12.7439 14.6699 12.4379 14.8859C12.1319 15.1019 11.7179 15.1379 11.3939 14.9579L8.9999 13.6979L6.6059 14.9579C6.2639 15.1379 5.8679 15.1019 5.5619 14.8859C5.2559 14.6699 5.09389 14.2919 5.16589 13.9139L5.61589 11.2499L3.6899 9.34187C3.4199 9.07187 3.32989 8.67587 3.43789 8.31587C3.54589 7.95587 3.86989 7.68587 4.24789 7.63187L6.9299 7.23587L8.1179 4.82387Z" fill="black"/>
<path d="M8.1179 4.49989C8.2799 4.15789 8.6219 3.94189 8.9999 3.94189C9.3779 3.94189 9.7199 4.15789 9.8819 4.49989L11.0879 6.92989L13.7699 7.32589C14.1479 7.37989 14.4539 7.64989 14.5799 8.00989C14.6879 8.36989 14.5979 8.76589 14.3279 9.03589L12.3839 10.9259L12.8339 13.5899C12.9059 13.9679 12.7439 14.3459 12.4379 14.5619C12.1319 14.7779 11.7179 14.8139 11.3939 14.6339L8.9999 13.3739L6.6059 14.6339C6.2639 14.8139 5.8679 14.7779 5.5619 14.5619C5.2559 14.3459 5.09389 13.9679 5.16589 13.5899L5.61589 10.9259L3.6899 8.99989C3.4199 8.72989 3.32989 8.33389 3.43789 7.97389C3.54589 7.61389 3.86989 7.34389 4.24789 7.28989L6.9299 6.89389L8.1179 4.49989Z" fill="url(#paint4_linear_7907_10690)"/>
<path d="M11.8621 14.3819C11.7541 14.3819 11.6461 14.3639 11.5561 14.3099L9.00006 12.9599L6.44406 14.3099C6.35406 14.3639 6.24606 14.3819 6.13806 14.3819C5.99406 14.3819 5.86806 14.3459 5.76006 14.2559C5.56206 14.1119 5.45406 13.8599 5.49006 13.6079L5.97606 10.7639L3.92406 8.76594C3.74406 8.58594 3.67206 8.33394 3.76206 8.09994C3.83406 7.86594 4.05006 7.68594 4.28406 7.64994L7.12806 7.23594L8.40606 4.64394C8.51406 4.40994 8.74806 4.28394 9.00006 4.28394C9.25206 4.28394 9.48606 4.42794 9.59406 4.64394L10.8721 7.23594L13.7161 7.64994C13.9681 7.68594 14.1661 7.86594 14.2381 8.09994C14.3101 8.33394 14.2561 8.60394 14.0761 8.76594L12.0061 10.7819L12.4921 13.6259C12.5281 13.8779 12.4381 14.1119 12.2221 14.2739C12.1321 14.3279 12.0061 14.3819 11.8621 14.3819Z" fill="url(#paint5_linear_7907_10690)"/>
<path d="M12.0422 12.2581C12.0422 12.7621 11.9702 13.2481 11.7002 13.3201C11.1242 13.5001 9.7742 13.1221 9.7742 13.1221L11.6642 14.1121C11.7182 14.1481 11.7902 14.1661 11.8622 14.1661C11.9522 14.1661 12.0422 14.1301 12.1142 14.0761C12.2402 13.9861 12.3122 13.8241 12.2942 13.6621L12.0422 12.2581Z" fill="url(#paint6_linear_7907_10690)"/>
<path d="M13.698 7.86604L11.142 7.48804C11.142 7.48804 13.104 8.04604 13.482 8.38804C13.644 8.53204 13.662 8.71204 13.644 8.87404L13.914 8.60404C14.04 8.49604 14.076 8.31604 14.022 8.15404C13.986 7.99204 13.86 7.88404 13.698 7.86604Z" fill="url(#paint7_linear_7907_10690)"/>
<path d="M5.14776 7.88403L4.46376 7.95603C4.30176 7.97403 4.15776 8.08203 4.10376 8.24403C4.04976 8.40603 4.08576 8.56803 4.21176 8.69403L5.16576 9.66603C4.85976 9.18003 4.58976 8.67603 4.66176 8.44203C4.73376 8.24403 4.93176 8.04603 5.14776 7.88403Z" fill="url(#paint8_linear_7907_10690)"/>
<path d="M7.59591 8.76587C6.49791 8.76587 5.48991 9.01787 4.62591 9.43187L5.99391 10.7639L5.50791 13.6079C5.47191 13.8599 5.56191 14.0939 5.77791 14.2559C5.88591 14.3459 6.02991 14.3819 6.15591 14.3819C6.26391 14.3819 6.37191 14.3639 6.46191 14.3099L9.01791 12.9599L11.5739 14.3099C11.6639 14.3639 11.7719 14.3819 11.8799 14.3819C12.0239 14.3819 12.1499 14.3459 12.2579 14.2559C12.4559 14.1119 12.5639 13.8599 12.5279 13.6079L12.0419 10.7639L12.1859 10.6199C11.1419 9.50387 9.48591 8.76587 7.59591 8.76587Z" fill="url(#paint9_linear_7907_10690)"/>
<defs>
<linearGradient id="paint0_linear_7907_10690" x1="0.449351" y1="11.0105" x2="17.5641" y2="11.0105" gradientUnits="userSpaceOnUse">
<stop offset="0.2769" stop-color="#422918"/>
<stop offset="0.5333" stop-color="#422918"/>
<stop offset="0.7282" stop-color="#422918"/>
</linearGradient>
<linearGradient id="paint1_linear_7907_10690" x1="8.95941" y1="0.185681" x2="9.04788" y2="17.2592" gradientUnits="userSpaceOnUse">
<stop stop-color="#FDEB9F"/>
<stop offset="0.4564" stop-color="#FFD76D"/>
<stop offset="0.641" stop-color="#FAF6CC"/>
<stop offset="1" stop-color="#FDE081"/>
</linearGradient>
<radialGradient id="paint2_radial_7907_10690" cx="0" cy="0" r="1" gradientUnits="userSpaceOnUse" gradientTransform="translate(9.08264 10.2035) scale(7.65958)">
<stop offset="0.5333" stop-color="#F5F5F5"/>
<stop offset="1" stop-color="#9C9B9B"/>
</radialGradient>
<linearGradient id="paint3_linear_7907_10690" x1="1.34728" y1="5.77786" x2="16.6664" y2="5.77786" gradientUnits="userSpaceOnUse">
<stop offset="0.2769" stop-color="#422918"/>
<stop offset="0.5333" stop-color="#422918"/>
<stop offset="0.7282" stop-color="#422918"/>
</linearGradient>
<linearGradient id="paint4_linear_7907_10690" x1="8.98371" y1="3.85697" x2="9.03672" y2="14.0872" gradientUnits="userSpaceOnUse">
<stop stop-color="#FDEB9F"/>
<stop offset="0.4564" stop-color="#FFD76D"/>
<stop offset="0.641" stop-color="#FAF6CC"/>
<stop offset="1" stop-color="#FDE081"/>
</linearGradient>
<linearGradient id="paint5_linear_7907_10690" x1="8.98563" y1="4.19876" x2="9.04807" y2="16.2461" gradientUnits="userSpaceOnUse">
<stop offset="0.0974359" stop-color="#FAF6CC"/>
<stop offset="0.4205" stop-color="#FFD76D"/>
<stop offset="0.7282" stop-color="#EF812B"/>
<stop offset="1" stop-color="#FDEB9F"/>
</linearGradient>
<linearGradient id="paint6_linear_7907_10690" x1="11.018" y1="12.8296" x2="12.0356" y2="14.2502" gradientUnits="userSpaceOnUse">
<stop stop-color="#FDEB9F" stop-opacity="0"/>
<stop offset="1" stop-color="#FAF6CC"/>
</linearGradient>
<linearGradient id="paint7_linear_7907_10690" x1="11.7546" y1="8.11361" x2="14.13" y2="8.35677" gradientUnits="userSpaceOnUse">
<stop stop-color="#FDEB9F" stop-opacity="0"/>
<stop offset="1" stop-color="#FAF6CC"/>
</linearGradient>
<linearGradient id="paint8_linear_7907_10690" x1="5.33376" y1="8.80783" x2="3.86355" y2="8.48896" gradientUnits="userSpaceOnUse">
<stop stop-color="#FDEB9F" stop-opacity="0"/>
<stop offset="1" stop-color="#FAF6CC"/>
</linearGradient>
<linearGradient id="paint9_linear_7907_10690" x1="9.42273" y1="8.23793" x2="8.13211" y2="13.3724" gradientUnits="userSpaceOnUse">
<stop stop-color="#FAF6CC"/>
<stop offset="1" stop-color="#FDEB9F" stop-opacity="0"/>
</linearGradient>
</defs>
</svg>
